<?xml version="1.0" standalone="no"?>
<!DOCTYPE svg PUBLIC "-//W3C//DTD SVG 1.1//EN" "http://www.w3.org/Graphics/SVG/1.1/DTD/svg11.dtd" >
<svg xmlns="http://www.w3.org/2000/svg" xmlns:xlink="http://www.w3.org/1999/xlink" version="1.1">
<metadata></metadata>
<defs>
<font id="eesome_d_mediummedium" horiz-adv-x="358" >
<font-face units-per-em="2048" ascent="1638" descent="-410" />
<missing-glyph horiz-adv-x="500" />
<glyph horiz-adv-x="0" />
<glyph unicode="&#xd;" />
<glyph unicode=" " />
<glyph unicode="!" horiz-adv-x="436" d="M98 1325q0 -68 17.5 -179.5t39 -244.5t40 -278.5t18.5 -280.5q0 -4 6 -4t6 4q0 135 17.5 280.5t39 278.5t39 244.5t17.5 179.5q0 92 -35 127t-84 35q-51 0 -86 -35t-35 -127zM113 84q0 -45 31.5 -78t74.5 -33q45 0 75 33t30 78q0 47 -30 79t-75 32q-43 0 -74.5 -32 t-31.5 -79z" />
<glyph unicode="&#x22;" horiz-adv-x="673" d="M102 1376q0 -39 9.5 -84t22.5 -93t26.5 -99t21.5 -103v-22q2 -2 4 -2q4 0 4 2q2 0 3 10v12q8 51 21 102.5t25.5 99.5t21.5 93t9 84q0 16 -4 36t-13 36t-25.5 27.5t-41.5 11.5t-41 -11.5t-25 -27.5t-13.5 -35.5t-4.5 -36.5zM406 1376q0 -39 9 -84t22.5 -93t26.5 -99 t21 -103v-22q2 -2 4 -2q4 0 5 2q2 0 2 10v12q8 51 21 102.5t26.5 99.5t22.5 93t9 84q0 16 -4 36t-13 36t-26.5 27.5t-42.5 11.5t-40 -11.5t-25 -27.5t-14 -35.5t-4 -36.5z" />
<glyph unicode="#" horiz-adv-x="980" d="M63 262q0 -6 5 -6h235l-98 -342q0 -4 6 -5t8 3l96 344h279l-98 -342q-2 -4 4 -5t8 3l100 344h244q4 0 4 6t-4 6h-242l95 338h243q4 0 4 6t-4 6h-239l96 338q2 4 -4 5.5t-8 -3.5l-97 -340h-278l96 338q2 4 -4 5.5t-8 -3.5l-96 -340h-240q-4 0 -4 -6t4 -6h237l-96 -338 h-239q-4 0 -5 -6zM322 268l94 338h278l-96 -338h-276z" />
<glyph unicode="$" horiz-adv-x="1150" d="M96 268q0 -49 28 -97t78 -90t118.5 -71.5t152.5 -38.5v-178q0 -4 6 -4q8 0 8 4v174q16 -2 33 -2h33q55 0 94 8v-180q0 -4 8 -4t9 4v184q94 18 166.5 66.5t121.5 113t75 137t26 140.5q0 88 -26 153.5t-75 115t-121.5 87t-166.5 72.5v606q90 -18 122.5 -66t32.5 -95 q0 -27 -12 -40.5t-27.5 -25.5t-28 -31.5t-12.5 -56.5q0 -49 36 -87t87 -38q45 0 87 40t42 108q0 49 -22.5 98t-64.5 90t-103.5 71.5t-136.5 43.5v180q0 4 -9 4q-8 0 -8 -4v-178q-37 6 -82 6q-39 0 -78 -6v178q0 4 -8 4q-6 0 -6 -4v-182q-72 -16 -133 -55.5t-106.5 -96.5 t-72 -128t-26.5 -148q0 -92 26.5 -159t73 -115t107.5 -82t131 -60v-651q-63 6 -103 23.5t-61.5 40t-29 47t-7.5 48.5q0 27 12.5 40.5t27 25.5t26.5 29.5t12 54.5q0 49 -35.5 87t-87.5 38q-47 0 -89 -40t-42 -108zM252 1221q0 86 60.5 152.5t160.5 90.5v-524 q-115 59 -168 127t-53 154zM487 -20v651q45 -16 85 -31.5t75 -30.5v-583q-39 -8 -96 -9h-33q-16 0 -31 3zM487 934v534q37 6 80 7q23 0 43.5 -1t36.5 -4v-604q-43 16 -84 32.5t-76 35.5zM664 -10v571q137 -59 198.5 -128.5t61.5 -184.5q0 -41 -17.5 -82t-51.5 -76t-82 -61.5 t-109 -38.5z" />
<glyph unicode="%" horiz-adv-x="1472" d="M74 991q0 -123 68.5 -190.5t172.5 -67.5q100 0 187.5 44t150 111.5t98 150.5t35.5 163q0 123 -68.5 190.5t-174.5 67.5q-102 0 -187.5 -43t-149 -111.5t-98 -151.5t-34.5 -163zM207 885q0 45 13 120.5t40 154.5t64.5 147.5t85.5 103.5q33 23 65.5 30t67.5 7 q61 0 85.5 -32.5t24.5 -106.5q0 -47 -14 -122t-40 -154t-63.5 -148.5t-84.5 -102.5q-33 -23 -66 -30t-68 -7q-61 0 -85.5 33t-24.5 107zM270 -41q-2 -4 4.5 -8t8.5 0l919 1536q2 2 -4 6t-8 0zM684 240q0 -123 69.5 -190.5t176.5 -67.5q100 0 187 44t149.5 111.5t98.5 150.5 t36 163q0 123 -68.5 190.5t-175.5 67.5q-102 0 -188 -44t-149.5 -112t-99.5 -151t-36 -162zM821 133q0 45 13.5 121t39 154.5t63.5 147.5t87 103q33 23 64.5 30t68.5 7q61 0 85 -32.5t24 -106.5q0 -47 -13.5 -122t-40 -153.5t-63.5 -148.5t-86 -102q-31 -23 -63.5 -30 t-67.5 -7q-63 0 -87 32.5t-24 106.5z" />
<glyph unicode="&#x26;" horiz-adv-x="1372" d="M74 387q0 -92 33.5 -170t95 -134t145.5 -87t182 -31q184 0 347 101q104 -98 221 -99q90 0 177 43t122 123q2 4 -3 7t-8 1q-10 -29 -34.5 -57.5t-63.5 -44.5q-16 -6 -33 -6q-43 0 -94 39t-86 92q-12 20 -18 29.5t-19 29.5q45 78 77 178.5t42 216.5q8 86 45 120t115 34h80 q4 0 4 6t-4 6h-475q-4 0 -4 -6t4 -6h73q80 0 118 -33.5t32 -120.5q-8 -104 -38 -203.5t-77 -176.5q-57 88 -117.5 186t-116 200.5t-101.5 204t-74 195.5q111 63 168 137t57 148q0 82 -40 130t-144 48q-61 0 -113.5 -26.5t-90.5 -77t-60.5 -122t-22.5 -159.5t35 -199 q-164 -106 -250 -231t-86 -285zM266 563q0 102 40 189.5t106 138.5q27 -80 65.5 -165t83.5 -170t94.5 -168t94.5 -157q57 -98 118 -155q-41 -18 -76.5 -27.5t-82.5 -9.5q-109 0 -192 43t-138 115.5t-84 167t-29 198.5zM580 1272q0 98 35.5 146t89.5 48q59 0 95 -41.5 t36 -115.5q0 -76 -61.5 -146.5t-158.5 -124.5q-37 125 -36 234z" />
<glyph unicode="'" horiz-adv-x="370" d="M102 1376q0 -39 9.5 -84t22.5 -93t26.5 -99t21.5 -103v-22q2 -2 4 -2q4 0 4 2q2 0 3 10v12q8 51 21 102.5t25.5 99.5t21.5 93t9 84q0 16 -4 36t-13 36t-25.5 27.5t-41.5 11.5t-41 -11.5t-25 -27.5t-13.5 -35.5t-4.5 -36.5z" />
<glyph unicode="(" horiz-adv-x="546" d="M139 506q0 -328 134.5 -586t369.5 -420q4 -2 8 1t2 5q-92 59 -154.5 132t-99.5 183.5t-53 275.5t-16 409t16 407.5t53 275t99.5 183.5t154.5 131q2 2 -2 6t-8 2q-236 -162 -370 -421t-134 -584z" />
<glyph unicode=")" horiz-adv-x="546" d="M-102 -494q-2 -2 2 -5t8 -1q236 162 370 420t134 586q0 326 -134.5 585t-369.5 420q-4 2 -8 -2t-2 -6q92 -59 154.5 -131t100 -183.5t54 -275t16.5 -407.5t-16.5 -409t-54 -275.5t-100 -183t-154.5 -132.5z" />
<glyph unicode="*" horiz-adv-x="673" d="M102 1120q0 -20 15.5 -39.5t38.5 -19.5t35 13t27 33.5t38 46.5t63 50l13 6v-12q0 -45 -7.5 -72.5t-16.5 -46t-16 -35t-7 -36.5t15 -36t38 -16t38 15.5t15 36.5q0 20 -7 36.5t-16.5 35t-16.5 46t-7 72.5v12l10 -6q43 -25 65.5 -50.5t38 -46t28 -33.5t34.5 -13 q23 0 37 19.5t14 39.5q0 18 -12 29.5t-29 15.5q-18 6 -36.5 8.5t-40 6.5t-46 13t-57.5 30q33 18 57.5 27.5t46 13.5t40 6t36.5 8q16 4 28.5 15.5t12.5 29.5q0 20 -14 40.5t-37 20.5t-35 -13t-27.5 -33.5t-38 -46t-65.5 -50.5l-10 -8v14q0 45 7 73t16.5 46t16.5 32.5t7 37.5 q0 20 -15.5 35.5t-37.5 15.5q-23 0 -38 -15.5t-15 -35.5q0 -23 7 -37.5t16 -32.5t16.5 -46t7.5 -73v-14l-13 8q-41 25 -63.5 50.5t-37.5 46t-27.5 33.5t-34.5 13q-23 0 -38.5 -20.5t-15.5 -40.5q0 -18 12.5 -29.5t28.5 -15.5q20 -6 39 -8t39.5 -6t46 -13.5t58.5 -27.5 q-33 -20 -58.5 -29.5t-46 -13.5t-39 -6.5t-39.5 -8.5q-16 -4 -28.5 -15t-12.5 -30z" />
<glyph unicode="+" horiz-adv-x="854" d="M98 436q0 -8 4 -8h318v-317q0 -4 6 -5q8 0 8 5v317h318q4 0 4 8t-4 8h-318v322q0 4 -8 4q-6 0 -6 -4v-322h-318q-4 0 -4 -8z" />
<glyph unicode="," d="M55 -276q-2 0 0 -6.5t4 -4.5q45 14 87 55.5t75 92.5t51.5 104t18.5 92q0 66 -27.5 102t-81.5 36q-43 0 -74.5 -33t-31.5 -78q0 -31 14 -53.5t33 -34.5q68 -53 67 -115q0 -66 -73 -123q-23 -23 -62 -34z" />
<glyph unicode="-" horiz-adv-x="655" d="M57 426h508q4 35 10.5 64.5t22.5 52.5q8 8 0 8h-506q-4 -35 -11 -64.5t-24 -52.5q-4 -8 0 -8z" />
<glyph unicode="." d="M76 84q0 -47 30.5 -79t73.5 -32t73 32t30 79q0 45 -30 77t-73 32t-73.5 -32t-30.5 -77z" />
<glyph unicode="/" horiz-adv-x="729" d="M125 -41q0 -4 6 -7t8 1l649 1591q2 4 -4 7t-8 -1z" />
<glyph unicode="0" horiz-adv-x="1085" d="M94 436q0 -94 36 -177t96.5 -144.5t142.5 -97t174 -35.5t174 35.5t142.5 97t96 144.5t35.5 177t-35.5 176t-96 143.5t-142.5 97.5t-174 36t-174 -36t-142.5 -97.5t-96.5 -143.5t-36 -176zM293 436q0 160 21.5 254t74.5 139q29 29 68 38.5t86 9.5t85 -9.5t68 -38.5 q53 -45 75 -139t22 -254q0 -92 -5.5 -156.5t-16.5 -110.5t-29.5 -76t-45.5 -52q-31 -29 -68.5 -38t-84.5 -9t-86 9t-68 38q-27 23 -45 52.5t-29.5 75.5t-16.5 110.5t-5 156.5z" />
<glyph unicode="1" horiz-adv-x="661" d="M88 6q0 -6 4 -6h477q4 0 4 6t-4 6h-131q-14 0 -14 6v834q0 8 14 8h131q4 0 4 6t-4 6h-477q-4 0 -4 -6t4 -6h131q14 0 15 -8v-834q0 -6 -15 -6h-131q-4 0 -4 -6z" />
<glyph unicode="2" horiz-adv-x="923" d="M32 7q3 -7 7 -7h809q4 0 4 6v303q0 4 -6 4t-6 -4q0 -92 -41 -133t-140 -41h-342q-6 0 -9 1t3 5q117 70 203 129.5t142.5 114.5t84 107.5t27.5 111.5q0 76 -29.5 130t-82 89t-121 51.5t-146.5 16.5q-61 0 -110.5 -16.5t-83 -42t-51 -56.5t-17.5 -59q0 -35 19.5 -64.5 t64.5 -29.5q47 0 69.5 22.5t22.5 50.5q0 25 -8 39.5t-8 40.5q0 53 29.5 78t70.5 25q94 0 144.5 -55.5t50.5 -200.5q0 -104 -26 -187.5t-88 -155t-167.5 -135t-263.5 -127.5q-8 -4 -5 -11z" />
<glyph unicode="3" horiz-adv-x="835" d="M25 -397q0 -76 77.5 -133.5t219.5 -57.5q80 0 162.5 29t152.5 84t114 138t44 192q0 76 -25 147.5t-73 126.5t-119.5 88t-163.5 33q-35 0 -72 -6q55 20 119.5 56t120 82t91.5 102.5t36 119.5q0 76 -31 131.5t-84 89t-123 50t-149 16.5q-59 0 -106.5 -16.5t-80.5 -41 t-50 -55t-17 -57.5q0 -35 18 -64.5t66 -29.5q49 0 70.5 22.5t21.5 50.5q0 27 -7.5 40.5t-7.5 39.5q0 53 27 76t66 23q96 0 142 -53.5t46 -200.5q0 -86 -15.5 -150.5t-50 -116t-92 -95.5t-141.5 -91q-4 -2 -1 -8t7 -2q55 35 88 52t66 17q55 0 97 -15t71.5 -58t44 -121 t14.5 -203t-20.5 -205t-57.5 -125t-87 -62t-111 -17q-57 0 -96.5 22.5t-39.5 93.5q0 27 8.5 41.5t8.5 38.5q0 29 -22.5 51.5t-69.5 22.5t-66.5 -28.5t-19.5 -63.5z" />
<glyph unicode="4" horiz-adv-x="931" d="M41 10q-6 -10 2 -10h496v-569h188v569h219q4 0 4 6t-4 6h-219v432q0 4 -6 5q-4 0 -6 -5q-6 -23 -22.5 -52.5t-40 -57t-52.5 -48t-61 -22.5v-252h-482l781 1071q0 2 -3.5 5.5t-7.5 -1.5q-20 -25 -56 -49t-77 -42.5t-82 -25.5t-69 3l-367 -725q-33 -70 -67.5 -132.5 t-67.5 -105.5z" />
<glyph unicode="5" horiz-adv-x="835" d="M33 -397q0 -76 80 -133.5t221 -57.5q78 0 156.5 31t141 91t102.5 150.5t40 209.5q0 86 -19.5 165.5t-62.5 139t-108.5 95.5t-157.5 36q-98 0 -157.5 -38t-84.5 -108v650q14 -29 45 -53.5t71 -43t86 -30t89 -11.5q47 0 89 11.5t73 32t49.5 48t18.5 58.5q0 35 -18.5 55.5 t-63.5 20.5q-31 0 -54.5 -17.5t-52.5 -38t-67.5 -38t-98.5 -17.5q-57 0 -103 13.5t-71 35.5q-2 4 -4 3t-2 -5t1 -6t1 -12v-684q0 -12 -3 -33t-3 -31q0 -12 3 -15t9 -3q10 0 10 16q0 18 -4 31.5t4 40.5q20 78 75.5 113.5t119.5 35.5q55 0 92 -19.5t60.5 -68.5t34 -134 t10.5 -216q0 -135 -15.5 -222t-46.5 -137.5t-77 -69.5t-107 -19q-59 0 -99 22.5t-40 93.5q0 27 8 41.5t8 38.5q0 29 -21.5 51.5t-68.5 22.5t-67.5 -28.5t-20.5 -63.5z" />
<glyph unicode="6" horiz-adv-x="1058" d="M125 602q0 -160 31.5 -276.5t89 -193.5t135.5 -113.5t168 -36.5q86 0 161.5 33.5t133 91t90.5 133t33 159.5q0 86 -33 162t-90.5 133.5t-133 91t-161.5 33.5q-72 0 -130.5 -37t-99.5 -96q4 145 22.5 282.5t55.5 243t92.5 170t131.5 64.5q39 0 62.5 -21.5t23.5 -74.5 q0 -29 -8.5 -42.5t-8.5 -37.5q0 -29 21.5 -51.5t70.5 -22.5q45 0 64.5 28.5t19.5 63.5q0 27 -16 57.5t-47 55t-77 41t-105 16.5q-113 0 -205 -73.5t-156.5 -194.5t-99.5 -274.5t-35 -313.5zM319 391v246q0 18 16.5 47t47.5 56.5t73 47t93 19.5q39 0 73.5 -9.5t63.5 -31.5 q45 -41 64.5 -131.5t19.5 -235.5q0 -164 -19.5 -244.5t-64.5 -119.5q-29 -25 -63.5 -34t-73.5 -9q-37 0 -73 9t-62 34q-23 20 -40.5 47t-29.5 67.5t-18.5 99t-6.5 142.5z" />
<glyph unicode="7" horiz-adv-x="856" d="M106 547q0 -4 7 -4q6 0 6 4q0 92 42 132t140 40h449l-619 -1288h186l379 1116q31 88 61.5 166.5t69.5 150.5q4 8 -4 8h-16h-694q-6 0 -7 -6v-319z" />
<glyph unicode="8" horiz-adv-x="1071" d="M117 360q0 -94 35.5 -164.5t95 -118.5t134.5 -71.5t155 -23.5q92 0 170.5 31.5t136 86t90.5 128t33 159.5q0 70 -26 130.5t-69 113.5t-102 102t-127 96q115 47 186.5 130t71.5 192q0 76 -31.5 134t-83 97t-117 58.5t-132.5 19.5q-88 0 -151.5 -31.5t-105.5 -82 t-61.5 -110.5t-19.5 -118q0 -61 17 -113.5t46 -96.5t67 -82t81 -70q-135 -55 -214 -157.5t-79 -238.5zM270 375q0 88 11.5 147.5t32 101.5t46 69.5t56.5 56.5q70 -53 142.5 -102.5t133 -104t99 -119t38.5 -150.5t-28.5 -140t-72.5 -85t-95 -43t-96 -12q-59 0 -107.5 17.5 t-84.5 61.5t-55.5 117.5t-19.5 184.5zM326 1243q0 84 51 144.5t160 60.5q49 0 91 -14.5t71.5 -50t47 -94t17.5 -144.5q0 -76 -10.5 -126t-27.5 -84t-40.5 -56.5t-50.5 -42.5q-57 39 -112.5 79.5t-99.5 90t-70.5 106.5t-26.5 131z" />
<glyph unicode="9" horiz-adv-x="1044" d="M104 455q0 -90 32 -169t87.5 -138.5t132 -94.5t166.5 -35q66 0 125.5 27t100.5 86q-4 -139 -21.5 -267t-52.5 -225.5t-92.5 -155.5t-141.5 -58q-47 0 -76.5 27.5t-29.5 80.5q0 25 9 39t9 41q0 29 -21.5 50.5t-70.5 21.5q-47 0 -65.5 -29t-18.5 -64q0 -29 16.5 -59.5 t50 -58t83 -45t114.5 -17.5q123 0 219.5 73t164 192.5t102.5 273t35 313.5q0 166 -34 285t-93.5 194.5t-139.5 111.5t-172 36q-90 0 -166.5 -35t-132 -94.5t-87.5 -139t-32 -167.5zM303 455q0 86 3 148.5t12.5 106.5t23.5 73.5t39 50.5q31 27 65.5 36t75.5 9t80 -9.5 t70 -35.5q25 -20 42 -49t28.5 -72t17.5 -105.5t6 -148.5q0 -29 -1 -74t-3 -89t-5 -79t-5 -41q-6 -25 -24.5 -50.5t-48.5 -47t-70 -35.5t-87 -14q-41 0 -75.5 10t-65.5 35q-47 43 -62.5 135t-15.5 246z" />
<glyph unicode=":" d="M76 84q0 -47 30.5 -79t73.5 -32t73 32t30 79q0 45 -30 77t-73 32t-73.5 -32t-30.5 -77zM76 688q0 -47 30.5 -77.5t73.5 -30.5t73 30.5t30 77.5q0 45 -30 77t-73 32t-73.5 -32t-30.5 -77z" />
<glyph unicode=";" d="M55 -276q-2 0 0 -6.5t4 -4.5q45 14 87 55.5t75 92.5t51.5 104t18.5 92q0 66 -27.5 102t-81.5 36q-43 0 -74.5 -33t-31.5 -78q0 -31 14 -53.5t33 -34.5q68 -53 67 -115q0 -66 -73 -123q-23 -23 -62 -34zM76 688q0 -47 30.5 -77.5t73.5 -30.5t73 30.5t30 77.5q0 45 -30 77 t-73 32t-73.5 -32t-30.5 -77z" />
<glyph unicode="&#x3c;" horiz-adv-x="681" d="M102 432l490 -285q4 -2 7 4.5t-1 8.5l-477 276l477 279q4 2 1 7t-7 3l-490 -285v-8z" />
<glyph unicode="=" horiz-adv-x="772" d="M102 315q0 -6 2 -6h566q4 0 4 6t-4 7h-566q-2 0 -2 -7zM102 557q0 -4 2 -4h566q4 0 4 4q0 6 -4 6h-566q-2 0 -2 -6z" />
<glyph unicode="&#x3e;" horiz-adv-x="681" d="M84 151.5q4 -6.5 8 -4.5l488 285q4 4 0 8l-488 285q-4 2 -8 -3t0 -7l477 -279l-477 -276q-4 -2 0 -8.5z" />
<glyph unicode="?" horiz-adv-x="858" d="M33 1239q0 -59 29.5 -86t78.5 -27t78 27t29 66q0 25 -5 37t-10.5 23t-10.5 25.5t-5 43.5q0 70 26.5 98.5t100.5 28.5q41 0 79 -9.5t66 -38.5q47 -45 69 -127.5t22 -238.5q0 -109 -2.5 -174.5t-7.5 -104.5t-14 -56t-21 -30q-18 -16 -49 -26.5t-62 -10.5q-37 0 -84 15.5 t-70 56.5q0 2 -3 1t-3 -5q0 -2 1 -3t1 -5v-377q0 -4 6 -4t7 4v360q27 -33 68.5 -44t76.5 -11q74 0 140.5 30t115.5 84t78.5 130t29.5 170t-32.5 173t-92 135t-141.5 87t-178 31q-70 0 -127 -22.5t-98 -57.5t-63.5 -79t-22.5 -89zM166 84q0 -45 31.5 -78t74.5 -33t74 33 t31 78q0 47 -31 79t-74 32t-74.5 -32t-31.5 -79z" />
<glyph unicode="@" horiz-adv-x="1677" d="M102 727q0 -158 59.5 -297t162 -242.5t239.5 -163t295 -59.5q135 0 256 45t219 127q4 4 0 8.5t-8 -0.5q-96 -78 -215 -123t-252 -45q-154 0 -289 58.5t-236.5 160t-159.5 238.5t-58 293t58 292t159.5 237.5t237 160t288.5 58.5q139 0 262 -43t214 -126t143.5 -204 t52.5 -277q0 -102 -36 -184t-94.5 -138.5t-133 -87t-154.5 -30.5q-86 0 -84 84t62 279l102 325h-143l-25 -74q-8 47 -46 70t-85 23q-92 0 -175 -44t-145.5 -112t-99.5 -151t-37 -162q0 -49 11.5 -96.5t37 -83t67.5 -58.5t101 -23q29 0 64 10.5t68.5 35t63.5 64.5t50 99 q-10 -41 -7 -78.5t23.5 -67.5t60.5 -47.5t103 -17.5q74 0 155 28t149.5 84t113.5 144t45 209q0 158 -53 281t-146.5 208t-218.5 129t-266 44q-158 0 -295 -59.5t-239.5 -163t-162 -241.5t-59.5 -296zM563 502q0 51 15.5 127t42 152.5t63.5 144t80 102.5q35 29 63.5 41 t65.5 12q59 0 95 -33.5t26 -82.5l-119 -377q-8 -29 -28.5 -65t-50.5 -67.5t-68.5 -53t-83.5 -21.5q-100 0 -101 121z" />
<glyph unicode="A" horiz-adv-x="1368" d="M-49 6q0 -6 4 -6h387q4 0 4 6t-4 6h-184q-10 0 -7 15.5t23 70.5l148 402h471l172 -480q0 -8 -11 -8h-194q-4 0 -4 -6t4 -6h667q4 0 5 6q0 6 -5 6h-174q-12 0 -16 8l-561 1461q-2 4 -6 4t-6 -4l-502 -1383q-23 -59 -30 -72.5t-21 -13.5h-156q-4 0 -4 -6zM324 512l233 643 l229 -643h-462z" />
<glyph unicode="B" horiz-adv-x="1343" d="M78 6q0 -6 4 -6h686q121 0 212 33t151.5 87t91 122.5t30.5 142.5q0 92 -38.5 164t-107.5 122t-161 76.5t-198 26.5q74 0 144.5 25.5t126.5 72t91 108.5t35 136q0 86 -39 148.5t-104.5 104.5t-152.5 62.5t-183 20.5h-584q-4 0 -4 -6t4 -6h178q14 0 14 -8v-1412 q0 -8 -14 -8h-178q-4 0 -4 -6zM528 20v750h154q78 0 138.5 -16.5t101.5 -59.5t61.5 -120.5t20.5 -200.5q0 -201 -74 -281t-219 -80h-170q-12 0 -13 8zM528 780v652q0 8 13 8h92q156 0 218 -76t62 -256q0 -94 -11 -157.5t-36.5 -101.5t-65.5 -53.5t-98 -15.5h-174z" />
<glyph unicode="C" horiz-adv-x="1351" d="M102 725q0 -152 52.5 -290t143.5 -242.5t217 -166t273 -61.5q43 0 91.5 10.5t95.5 22.5t91 22.5t81 10.5q43 0 65.5 -21.5t26.5 -40.5q2 -2 6 -2q6 0 6 2v508q0 4 -6 4t-6 -4q0 -100 -35 -191t-95 -160t-143 -110t-178 -41q-72 0 -140 17.5t-116 62.5q-80 76 -117.5 238 t-37.5 432q0 272 38 433t117 237q47 47 111 63.5t135 16.5q76 0 152 -40t136 -103.5t97 -142.5t37 -155q0 -4 6 -4t6 4v447q0 4 -6 4t-6 -4q-4 -16 -30.5 -32.5t-71.5 -16.5q-37 0 -77 8t-82 19t-83 19.5t-78 8.5q-147 0 -271 -61.5t-214 -166t-140.5 -242.5t-50.5 -292z " />
<glyph unicode="D" horiz-adv-x="1519" d="M78 6q0 -6 4 -6h661q139 0 262 57.5t214.5 155.5t144.5 230t53 282t-53 283t-144.5 231t-214 155.5t-262.5 57.5h-661q-4 0 -4 -6t4 -6h178q14 0 14 -8v-1412q0 -8 -14 -8h-178q-4 0 -4 -6zM528 20v1412q0 8 13 8h202q72 0 134.5 -16.5t109.5 -59.5q80 -72 119 -226.5 t39 -412.5q0 -147 -9.5 -251.5t-30 -178.5t-50 -122t-68.5 -85q-47 -43 -109.5 -59.5t-134.5 -16.5h-202q-12 0 -13 8z" />
<glyph unicode="E" horiz-adv-x="1318" d="M76 6q0 -6 4 -6h1184q6 0 6 6v438q0 4 -6 5q-6 0 -7 -5q0 -80 -26.5 -156.5t-85 -138t-149.5 -99.5t-218 -38h-237q-12 0 -13 8v719h78q61 0 111.5 -20.5t86.5 -55t54.5 -81.5t18.5 -99q0 -4 6 -4t6 4v525q0 4 -6 4t-6 -4q0 -53 -18.5 -99.5t-54.5 -81t-86 -55 t-112 -20.5h-78v680q0 8 13 8h231q98 0 169 -35t117 -90t67.5 -125t21.5 -141q0 -4 6 -5q6 0 6 5v397q0 6 -6 6h-1073q-4 0 -4 -6t4 -6h180q14 0 14 -8v-1412q0 -8 -14 -8h-180q-4 0 -4 -6z" />
<glyph unicode="F" horiz-adv-x="1267" d="M78 6q0 -6 4 -6h643q4 0 4 6t-4 6h-184q-12 0 -13 8v719h62q61 0 112.5 -20.5t86 -55t54 -81.5t19.5 -99q0 -4 6 -4t6 4v525q0 4 -6 4t-6 -4q0 -53 -19.5 -99.5t-54 -81t-86 -55t-112.5 -20.5h-62v680q0 8 13 8h227q98 0 170 -35t119 -90t69.5 -125t22.5 -141q0 -4 6 -5 q6 1 6 5v397q0 6 -6 6h-1073q-4 0 -4 -6t4 -6h180q12 0 12 -8v-1412q0 -8 -12 -8h-180q-4 0 -4 -6z" />
<glyph unicode="G" horiz-adv-x="1404" d="M102 725q0 -147 45.5 -284.5t128 -243t202.5 -169t270 -63.5q88 0 149 16.5t107.5 37t82 37t72.5 16.5q45 0 70.5 -29t30.5 -49q0 -4 7 -5t7 3v551q0 6 14 6h180q4 0 5 6q0 6 -5 6h-643q-4 0 -4 -6t4 -6h183q12 0 12 -6v-373q0 -86 -65.5 -140.5t-206.5 -54.5 q-70 0 -133.5 17.5t-112.5 62.5q-41 37 -64.5 92.5t-38 135t-18.5 188.5t-4 254q0 272 38 433t117 237q49 47 112 63.5t132 16.5q80 0 150.5 -40t125 -103.5t85 -142.5t30.5 -155q0 -4 4 -4q6 0 7 4v447q0 4 -4 4t-7 -4q-4 -16 -31.5 -32.5t-72.5 -16.5q-35 0 -70 8 t-70.5 19t-72.5 19.5t-74 8.5q-147 0 -270 -61.5t-213 -166t-140.5 -242.5t-50.5 -292z" />
<glyph unicode="H" horiz-adv-x="1617" d="M78 6q0 -6 4 -6h623q4 0 4 6t-4 6h-164q-12 0 -13 8v730h559v-730q0 -8 -12 -8h-162q-4 0 -4 -6t4 -6h623q4 0 4 6t-4 6h-182q-12 0 -13 8v1412q0 8 13 8h182q4 0 4 6t-4 6h-623q-4 0 -4 -6t4 -6h162q12 0 12 -8v-670h-559v670q0 8 13 8h164q4 0 4 6t-4 6h-623 q-4 0 -4 -6t4 -6h178q14 0 14 -8v-1412q0 -8 -14 -8h-178q-4 0 -4 -6z" />
<glyph unicode="I" horiz-adv-x="802" d="M78 6q0 -6 4 -6h643q4 0 4 6t-4 6h-184q-12 0 -13 8v1412q0 8 13 8h184q4 0 4 6t-4 6h-643q-4 0 -4 -6t4 -6h180q12 0 12 -8v-1412q0 -8 -12 -8h-180q-4 0 -4 -6z" />
<glyph unicode="J" horiz-adv-x="1009" d="M31 250q0 -51 27.5 -102.5t74.5 -91.5t109.5 -65.5t134.5 -25.5q193 0 301 98.5t108 278.5v1090q0 8 13 8h182q4 0 4 6t-4 6h-643q-4 0 -4 -6t4 -6h182q12 0 12 -8v-1289q0 -86 -44 -127t-111 -41q-51 0 -93 37t-42 86q0 33 14 48.5t32.5 29.5t33 35.5t14.5 64.5 q0 59 -43 104.5t-105 45.5q-27 0 -54.5 -12.5t-51 -35t-37.5 -55t-14 -73.5z" />
<glyph unicode="K" horiz-adv-x="1386" d="M78 6q0 -6 4 -6h643q4 0 4 6t-4 6h-184q-12 0 -13 8v699l527 -699q4 -8 -6 -8h-209q-4 0 -4 -6t4 -6h731q4 0 4 6t-4 6h-189q-14 0 -18 8l-674 875l397 459q27 29 42.5 46t24.5 26.5t13 11.5t11 2h172q4 0 4 6t-4 6h-408q-4 0 -4 -6t4 -6h184q4 0 6.5 -2t-3 -11.5 t-19.5 -26t-41 -46.5l-541 -623v701q0 8 13 8h184q4 0 4 6t-4 6h-643q-4 0 -4 -6t4 -6h180q12 0 12 -8v-1412q0 -8 -12 -8h-180q-4 0 -4 -6z" />
<glyph unicode="L" horiz-adv-x="1255" d="M78 6q0 -6 4 -6h1128q7 0 7 6v457q0 4 -7 4q-6 0 -6 -4q0 -78 -23.5 -159t-75.5 -145.5t-134 -105.5t-201 -41h-229q-10 0 -11 8v1412q0 8 11 8h184q4 0 4 6t-4 6h-643q-4 0 -4 -6t4 -6h180q12 0 12 -8v-1412q0 -8 -12 -8h-180q-4 0 -4 -6z" />
<glyph unicode="M" horiz-adv-x="1816" d="M68 6q0 -6 4 -6h403q4 0 4 6t-4 6h-182q-12 0 -12 8v1399l532 -1446q2 -4 6 -4q6 0 8 4l463 1444v-1397q0 -8 -12 -8h-182q-4 0 -4 -6t4 -6h645q4 0 4 6t-4 6h-182q-12 0 -13 8v1412q0 8 13 8h182q4 0 4 6t-4 6h-441q-16 0 -26 -37l-340 -1050l-391 1050q-12 37 -31 37 h-440q-4 0 -4 -6t4 -6h180q12 0 12 -8v-1412q0 -8 -12 -8h-180q-4 0 -4 -6z" />
<glyph unicode="N" horiz-adv-x="1511" d="M68 6q0 -6 4 -6h403q4 0 4 6t-4 6h-184q-10 0 -10 8v1405l964 -1452q4 -6 10.5 -5t6.5 5v1459q0 8 12 8h182q4 0 4 6t-4 6h-403q-4 0 -4 -6t4 -6h182q12 0 12 -8v-1024l-665 1007q-14 23 -24.5 30t-20.5 7h-465q-4 0 -4 -6t4 -6h180q12 0 12 -8v-1412q0 -8 -12 -8h-180 q-4 0 -4 -6z" />
<glyph unicode="O" horiz-adv-x="1554" d="M102 725q0 -158 53.5 -296t144.5 -241.5t214 -163t262 -59.5t262 59.5t215.5 163t145.5 241.5t53 296t-53 297t-145.5 242.5t-215.5 163t-262 59.5q-147 0 -270 -61.5t-213 -166t-140.5 -242.5t-50.5 -292zM377 725q0 272 39 433t116 237q47 47 110 63.5t134 16.5 q74 0 135.5 -16.5t110.5 -63.5q78 -76 117 -237t39 -433q0 -154 -9.5 -264.5t-29 -187t-49 -129t-68.5 -89.5q-49 -45 -110.5 -62.5t-135.5 -17.5q-72 0 -134 17.5t-110 62.5q-39 37 -68.5 89.5t-49 129t-28.5 187t-9 264.5z" />
<glyph unicode="P" horiz-adv-x="1331" d="M78 6q0 -6 4 -6h643q4 0 4 6t-4 6h-184q-10 0 -11 8v588q41 -10 89.5 -17t115.5 -7q121 0 219.5 30.5t168 86t107.5 133.5t38 170q0 94 -38 176t-110.5 142t-180.5 95t-247 35h-610q-4 0 -4 -6t4 -6h180q12 0 12 -8v-1412q0 -8 -12 -8h-180q-4 0 -4 -6zM530 629v803 q0 8 11 8h151q147 0 235.5 -106.5t88.5 -329.5q0 -221 -68.5 -314.5t-212.5 -93.5q-66 0 -113 6t-92 27z" />
<glyph unicode="Q" horiz-adv-x="1554" d="M102 725q0 -158 53.5 -296t144.5 -241.5t214 -163t262 -59.5q29 0 58.5 2t56.5 8q-70 -25 -144.5 -49t-138.5 -51q-65 -10 -65 -30q0 -13 16 -13q10 0 27.5 15.5t46.5 15.5q72 0 106.5 -29t62 -71t60.5 -92t101.5 -92t186.5 -70.5t312 -28.5q4 0 4 6q0 4 -4 4 q-104 0 -158.5 28.5t-90 71.5t-66.5 92.5t-87 92.5t-154.5 71.5t-266.5 28.5q51 20 109.5 38.5t117 40t115.5 45.5t106 52q80 45 146.5 115t115 157t75 189t26.5 213q0 158 -53.5 297t-144.5 242.5t-214 163t-262 59.5q-147 0 -270 -61.5t-213 -166t-140.5 -242.5 t-50.5 -292zM377 725q0 272 38 433t117 237q47 47 108.5 63.5t135.5 16.5t135.5 -16.5t108.5 -63.5q80 -76 119 -237t39 -433q0 -154 -9.5 -264.5t-30 -187t-50 -129t-68.5 -89.5q-47 -45 -108.5 -62.5t-135.5 -17.5t-135 17.5t-109 62.5q-41 37 -69.5 89.5t-48 129 t-28.5 187t-9 264.5z" />
<glyph unicode="R" horiz-adv-x="1421" d="M78 6q0 -6 4 -6h668q4 0 4 6t-4 6h-209q-12 0 -13 8v730h170q70 0 128.5 -14.5t100.5 -45.5t65.5 -79t23.5 -115v-134q0 -111 27.5 -186.5t72.5 -122.5t104.5 -67.5t125.5 -20.5t112.5 19.5t79.5 52.5q4 2 0 7t-6 3q-23 -23 -55.5 -40t-73.5 -17q-59 0 -92 53t-33 131 v184q0 84 -28.5 157t-89 126t-156 84t-228.5 31q94 0 174 26.5t138.5 72.5t91 107.5t32.5 133.5q0 76 -33.5 140t-97 112.5t-155.5 76t-207 27.5h-637q-4 0 -4 -6t4 -6h180q12 0 12 -8v-1412q0 -8 -12 -8h-180q-4 0 -4 -6zM528 762v670q0 8 13 8h125q147 0 219.5 -80 t72.5 -273q0 -98 -12 -160.5t-42 -99t-80 -51t-126 -14.5h-170z" />
<glyph unicode="S" horiz-adv-x="1144" d="M117 -29q0 -4 4 -4t6 4q4 29 36 53.5t79 24.5q35 0 72.5 -13t79.5 -28.5t89 -29t103 -13.5q123 0 216 45t156.5 114t95 150.5t31.5 157.5q0 94 -30.5 160.5t-87 118t-137 89.5t-181.5 72q-197 70 -288 151t-91 191q0 53 20.5 100.5t58.5 83.5t89 56.5t113 20.5 q66 0 130 -28t114.5 -76t81 -112.5t30.5 -138.5q0 -4 6 -4t7 4v361q0 4 -7 4q-6 0 -6 -4q-4 -16 -20.5 -32.5t-63.5 -16.5q-35 0 -66.5 8t-64.5 19t-67.5 19.5t-75.5 8.5q-80 0 -150.5 -35t-124 -94.5t-85 -139t-31.5 -169.5q0 -92 26.5 -159t73.5 -115t109.5 -82t136.5 -60 q119 -43 205 -80t140 -79t79.5 -94t25.5 -126q0 -49 -24.5 -99.5t-71.5 -90t-115.5 -64.5t-158.5 -25q-100 0 -184.5 50.5t-144.5 122t-94 152.5t-34 142q0 4 -6 4q-4 0 -4 -4v-471z" />
<glyph unicode="T" horiz-adv-x="1318" d="M43 987q0 -4 6 -4t6 4q0 88 24.5 170t77 145.5t133.5 100.5t193 37h33q12 0 12 -8v-1412q0 -8 -12 -8h-182q-4 0 -4 -6t4 -6h645q4 0 4 6t-4 6h-182q-12 0 -13 8v1412q0 8 13 8h32q113 0 195 -37t136 -100.5t80 -145.5t26 -170q0 -4 6 -4t6 4v459q0 6 -4 6h-1225 q-6 0 -6 -6v-459z" />
<glyph unicode="U" horiz-adv-x="1482" d="M37 1446q0 -6 4 -6h182q10 0 10 -8v-1018q0 -115 40 -199t111 -139.5t169 -83t215 -27.5q129 0 223 33t155.5 93.5t91.5 146.5t30 192v1002q0 8 12 8h182q4 0 4 6t-4 6h-403q-4 0 -4 -6t4 -6h182q12 0 12 -8v-1002q0 -96 -25.5 -177t-77.5 -138.5t-134 -89t-195 -31.5 q-180 0 -256 108.5t-76 311.5v1018q0 8 13 8h182q4 0 4 6t-4 6h-643q-4 0 -4 -6z" />
<glyph unicode="V" horiz-adv-x="1433" d="M-76 1446q0 -6 4 -6h187q14 0 16 -8l639 -1463q2 -4 6 -4q6 0 8 4l488 1385q20 57 29.5 71.5t19.5 14.5h170q4 0 4 6t-4 6h-412q-4 0 -4 -6t4 -6h193q10 0 9 -13.5t-24 -72.5l-370 -1055l-481 1133q-2 8 10 8h215q4 0 4 6t-4 6h-703q-4 0 -4 -6z" />
<glyph unicode="W" horiz-adv-x="2074" d="M-96 1446q0 -6 4 -6h186q12 0 17 -8l577 -1463q4 -4 8 -5t6 5l369 1069l395 -1069q2 -4 7 -4q6 0 8 4l477 1385q18 59 28.5 72.5t20.5 13.5h170q4 0 4 6t-4 6h-414q-4 0 -4 -6t4 -6h195q10 0 9 -12.5t-19 -63.5l-357 -1045l-401 1113q-4 8 10 8h217q4 0 4 6t-4 6h-667 q-4 0 -5 -6q0 -6 5 -6h159q2 0 9.5 -2t7.5 -6l139 -375l-248 -731l-434 1106q-2 8 10 8h187q4 0 4 6t-4 6h-672q-4 0 -4 -6z" />
<glyph unicode="X" horiz-adv-x="1429" d="M0 1446q0 -6 4 -6h191q12 0 16 -8l446 -779l-340 -555q-35 -59 -50 -72.5t-19 -13.5h-178q-4 0 -4 -6t4 -6h413q4 0 4 6t-4 6h-180q-14 0 -9 13.5t40 72.5l332 539l348 -617q4 -8 -6 -8h-209q-4 0 -4 -6t4 -6h700q4 0 4 6t-4 6h-188q-14 0 -19 8l-485 850l293 484 q37 59 51 72.5t18 13.5h179q4 0 4 6t-4 6h-412q-4 0 -4 -6t4 -6h178q16 0 11 -13.5t-40 -72.5l-286 -469l-310 547q-4 8 9 8h207q4 0 4 6t-4 6h-701q-4 0 -4 -6z" />
<glyph unicode="Y" horiz-adv-x="1337" d="M-35 1446q0 -6 4 -6h191q12 0 16 -8l414 -799v-613q0 -8 -12 -8h-183q-4 0 -4 -6t4 -6h643q4 0 4 6t-4 6h-182q-14 0 -14 8v644l321 682q14 33 24.5 51t17.5 27.5t12.5 12.5t9.5 3h159q4 0 5 6q0 6 -5 6h-411q-4 0 -4 -6t4 -6h203q12 0 9 -13.5t-32 -72.5l-317 -668 l-383 746q-4 8 8 8h217q4 0 4 6t-4 6h-711q-4 0 -4 -6z" />
<glyph unicode="Z" horiz-adv-x="1308" d="M115 16q-6 -16 4 -16h1079q4 0 4 6v467q0 4 -6 4q-4 0 -4 -4q0 -88 -29.5 -171t-86 -147.5t-137.5 -103.5t-183 -39h-359q-12 0 -8 8l805 1416q10 16 -2 16h-999q-6 0 -7 -6v-459q0 -4 7 -4q6 0 6 4q0 88 27.5 170t81.5 145.5t134 100.5t183 37h288q12 0 9 -8z" />
<glyph unicode="[" horiz-adv-x="534" d="M174 -492q0 -8 8 -8h408q4 0 4 6t-4 7h-213q-14 0 -15 6v1972q0 8 15 8h213q4 0 4 4q0 6 -4 6h-408q-8 0 -8 -6v-1995z" />
<glyph unicode="\" horiz-adv-x="729" d="M-59 1544l649 -1591q2 -4 8 -1t6 7l-651 1591q-2 4 -8 1t-4 -7z" />
<glyph unicode="]" horiz-adv-x="536" d="M-57 -494q0 -6 4 -6h409q6 0 6 8v1995q0 6 -6 6h-409q-4 0 -4 -6q0 -4 4 -4h213q14 0 14 -8v-1972q0 -6 -14 -6h-213q-4 0 -4 -7z" />
<glyph unicode="^" horiz-adv-x="663" d="M86 1083q-2 -4 1 -7t5 -1l248 174l268 -174q4 -2 8 1t2 7q-90 100 -154.5 179t-109.5 149q-4 8 -8 0q-45 -70 -109.5 -148.5t-150.5 -179.5z" />
<glyph unicode="_" horiz-adv-x="1159" d="M70 6q0 -6 4 -6h1011q4 0 5 6q0 6 -5 6h-1011q-4 0 -4 -6z" />
<glyph unicode="`" horiz-adv-x="720" d="M164 1362q0 -31 18.5 -70t68.5 -81t140 -81.5t234 -74.5q4 -2 5 5t-3 7q-109 27 -168.5 86t-95 120.5t-61.5 107.5t-69 46q-33 0 -51 -18t-18 -47z" />
<glyph unicode="a" horiz-adv-x="899" d="M74 199q0 -61 24.5 -102.5t64.5 -66t90 -35.5t101 -11q84 0 145.5 34.5t82.5 100.5q10 -59 55 -97t111 -38q57 0 96 25t49 54q2 4 -3 7.5t-7 -0.5q-4 -16 -24.5 -35t-47.5 -19q-53 0 -53 70v436q0 193 -86 282t-246 89q-59 0 -107.5 -16.5t-81 -41t-50 -54t-17.5 -56.5 q0 -35 19.5 -63.5t66.5 -28.5q49 0 70.5 21.5t21.5 50.5q0 25 -8 39t-8 40q0 51 27.5 74t66.5 23q29 0 55.5 -9.5t46 -32t31.5 -62.5t12 -101v-156q0 -16 -19.5 -26.5t-52 -16.5t-72.5 -10t-83 -8q-31 -4 -77 -14.5t-89 -38t-73.5 -77.5t-30.5 -130zM258 199 q0 70 10.5 115.5t26.5 73.5t39.5 41t48.5 17q45 10 99.5 15.5t88.5 27.5v-331q0 -31 -13 -58.5t-37.5 -49t-57.5 -34t-72 -12.5q-25 0 -49.5 7t-42.5 27.5t-29.5 59.5t-11.5 101z" />
<glyph unicode="b" horiz-adv-x="1054" d="M37 6q0 -6 4 -6h307q6 0 6 6v62q35 -41 84 -63.5t109 -22.5q88 0 166 37.5t135 101t91 144.5t34 165q0 86 -34 168t-92.5 147.5t-137 105.5t-166.5 40q-115 0 -189 -84v692q0 6 -6 6h-307q-4 0 -4 -6t4 -6h113q14 0 14 -8v-1465q0 -8 -14 -8h-113q-4 0 -4 -6zM354 111 v673q33 47 83 71t106 24q41 0 78.5 -9.5t66.5 -38.5q47 -43 67.5 -143t20.5 -258q0 -156 -20.5 -251t-67.5 -138q-29 -27 -64.5 -37t-76.5 -10q-59 0 -114.5 28.5t-78.5 88.5z" />
<glyph unicode="c" horiz-adv-x="899" d="M82 436q0 -94 34 -177t91 -144.5t135 -97t168 -35.5q109 0 198 53t148 141q2 4 -2 6t-6 0q-53 -84 -140 -136t-198 -52q-41 0 -78 10t-65 37q-25 23 -42.5 52.5t-28.5 75.5t-16.5 110.5t-5.5 156.5t5.5 156.5t16.5 111t28.5 76t42.5 51.5q29 27 65.5 37.5t77.5 10.5 q76 0 109.5 -22.5t33.5 -78.5q0 -23 -4 -35t-8 -21t-8 -20.5t-4 -29.5q0 -29 22.5 -51.5t63.5 -22.5t64.5 21.5t23.5 68.5q0 37 -19.5 73t-56.5 65.5t-92 47t-125 17.5q-90 0 -168 -36t-135 -97.5t-91 -144.5t-34 -177z" />
<glyph unicode="d" horiz-adv-x="1036" d="M86 430q0 -84 33 -165t90 -144.5t134 -101t165 -37.5t135 38.5t59 75.5v-90q0 -6 7 -6h307q4 0 4 6t-4 6h-113q-14 0 -14 8v1479q0 6 -4 6h-307q-4 0 -5 -6q0 -6 5 -6h112q12 0 12 -8v-678q-35 41 -82 62.5t-108 21.5q-88 0 -166 -40t-135 -105.5t-91 -147.5t-34 -168z M276 430q0 315 95 401q29 29 64.5 38.5t76.5 9.5q57 0 107.5 -24t82.5 -71v-630q0 -61 -48 -110.5t-146 -49.5q-41 0 -75 10t-62 37q-47 43 -71 138t-24 251z" />
<glyph unicode="e" horiz-adv-x="942" d="M84 436q0 -94 33 -177t89 -144.5t133 -97t167 -35.5q109 0 198 53t146 141q2 4 -2 6t-6 0q-53 -84 -139.5 -136t-196.5 -52q-41 0 -77 10t-64 37q-25 23 -41.5 52.5t-26.5 75.5t-14 110.5t-4 156.5v49h587q6 1 6 7q0 57 -21.5 126.5t-65.5 130t-113.5 101.5t-165.5 41 q-90 0 -167 -36t-133 -97.5t-89 -144.5t-33 -177zM281 500q4 133 22.5 212t61.5 119q29 27 64.5 37.5t76.5 10.5q35 0 63.5 -10.5t53.5 -37.5q35 -41 50 -119.5t19 -211.5h-411z" />
<glyph unicode="f" horiz-adv-x="620" d="M51 866q0 -6 4 -6h142q12 0 12 -8v-832q0 -8 -12 -8h-115q-4 0 -4 -6t4 -6h438q4 0 4 6t-4 6h-112q-12 0 -13 8v832q0 8 13 8h170q4 0 4 6t-4 6h-170q-12 0 -13 9v385q0 70 10.5 117t25.5 74.5t35.5 38.5t43.5 11q65 0 65 -61q0 -25 -4 -36t-10 -20.5t-10 -19.5t-4 -29 q0 -31 22.5 -52t69.5 -21q41 0 67.5 29.5t26.5 70.5q0 70 -55 113t-125 43q-78 0 -140.5 -31t-108.5 -101.5t-70.5 -186t-24.5 -283.5v-41q0 -8 -12 -9h-142q-4 0 -4 -6z" />
<glyph unicode="g" horiz-adv-x="997" d="M51 -365q0 -57 34 -108t95.5 -89t147.5 -60.5t190 -22.5q82 0 169 24.5t160 73.5t119 121t46 168q0 172 -101.5 246.5t-306.5 74.5h-237q-102 0 -143.5 32t-41.5 118q0 53 18.5 84t47.5 51q43 -51 110.5 -83t145.5 -32q70 0 132 26t108.5 71t73 105.5t26.5 127.5 q0 111 -68 197q16 35 32.5 54.5t32 29.5t29 12t23.5 2q16 0 26.5 -8t10.5 -25q0 -16 -8.5 -22t-8.5 -29q0 -16 16.5 -32.5t45.5 -16.5q27 0 45 22.5t18 51.5q0 45 -29.5 68.5t-70.5 23.5q-59 0 -101 -35t-69 -88q-47 59 -113.5 91t-150.5 32q-70 0 -131.5 -25.5 t-107.5 -69.5t-72.5 -104.5t-26.5 -128.5q0 -59 19.5 -111.5t54.5 -93.5q-72 -47 -111 -103t-39 -149q0 -78 44 -131t126 -75q-45 -12 -83 -39t-65.5 -63t-44 -78t-16.5 -85zM190 -338q0 92 25 150.5t68 85.5q14 -4 31.5 -6.5t33.5 -2.5h322q57 0 101 -18t73.5 -50t45 -75 t15.5 -90q0 -72 -32.5 -126t-86 -91t-124 -55.5t-144.5 -18.5q-158 0 -243 66.5t-85 230.5zM340 563q0 117 14.5 184.5t48.5 100.5q23 20 47.5 26.5t53.5 6.5q33 0 57.5 -6.5t46.5 -26.5q33 -33 47.5 -100.5t14.5 -184.5q0 -66 -3 -111.5t-11.5 -78.5t-19.5 -54.5t-28 -37.5 q-23 -20 -47 -27.5t-57 -7.5q-29 0 -53.5 7t-47.5 28q-16 16 -28.5 37.5t-20.5 54.5t-11 79t-3 111z" />
<glyph unicode="h" horiz-adv-x="1071" d="M37 6q0 -6 4 -6h438q4 0 4 6t-4 6h-112q-12 0 -13 8v682q23 76 78 126.5t154 50.5q27 0 53.5 -12.5t48 -38t35.5 -64.5t14 -94v-650q0 -8 -14 -8h-113q-4 0 -4 -6t4 -6h441q4 0 4 6t-4 6h-113q-14 0 -14 8v529q0 164 -89.5 253t-248.5 89q-70 0 -136.5 -37t-95.5 -123 v768q0 6 -6 6h-307q-4 0 -4 -6t4 -6h113q14 0 14 -8v-1465q0 -8 -14 -8h-113q-4 0 -4 -6z" />
<glyph unicode="i" horiz-adv-x="542" d="M57 6q0 -6 4 -6h441q4 0 4 6t-4 6h-113q-14 0 -14 8v846q0 6 -4 6h-310q-4 0 -4 -6t4 -6h115q12 0 12 -8v-832q0 -8 -12 -8h-115q-4 0 -4 -6zM162 1386q0 -51 34.5 -85.5t86.5 -34.5q49 0 83.5 34.5t34.5 85.5q0 49 -34.5 85t-83.5 36q-51 0 -86 -35.5t-35 -85.5z" />
<glyph unicode="j" horiz-adv-x="546" d="M-141 -500q0 -72 55 -110.5t127 -38.5q76 0 138.5 30.5t105.5 101.5t66.5 185.5t23.5 284.5v913q0 6 -6 6h-308q-4 0 -4 -6t4 -6h115q12 0 12 -8v-1245q0 -139 -29.5 -190.5t-74.5 -51.5q-63 0 -64 60q0 20 4.5 31.5t9.5 20.5t9 20t4 30q0 31 -23.5 51.5t-70.5 20.5 q-41 0 -67.5 -29t-26.5 -70zM162 1386q0 -51 34.5 -85.5t86.5 -34.5q49 0 83.5 34.5t34.5 85.5q0 49 -34.5 85t-83.5 36q-51 0 -86 -35.5t-35 -85.5z" />
<glyph unicode="k" horiz-adv-x="987" d="M37 6q0 -6 4 -6h438q4 0 4 6t-4 6h-112q-12 0 -13 8v449l355 -449q6 -8 -9 -8h-108q-4 0 -4 -6t4 -6h485q4 0 4 6t-4 6h-131q-16 0 -18 8l-449 560l213 194q33 31 52.5 47.5t31.5 25.5t18.5 11t12.5 2h111q4 0 4 6t-4 6h-306q-4 0 -4 -6t4 -6h142q4 0 5 -2t-6.5 -11 t-25.5 -25.5t-51 -47.5l-322 -293v1018q0 6 -6 6h-307q-4 0 -4 -6t4 -6h113q14 0 14 -8v-1465q0 -8 -14 -8h-113q-4 0 -4 -6z" />
<glyph unicode="l" horiz-adv-x="497" d="M37 6q0 -6 4 -6h438q4 0 4 6t-4 6h-112q-14 0 -15 8v1479q0 6 -4 6h-307q-4 0 -4 -6t4 -6h113q14 0 14 -8v-1465q0 -8 -14 -8h-113q-4 0 -4 -6z" />
<glyph unicode="m" horiz-adv-x="1642" d="M39 6q0 -6 4 -6h438q4 0 4 6t-4 6h-112q-12 0 -13 8v682q23 76 78 126.5t154 50.5q27 0 53.5 -12.5t48 -38t34.5 -64.5t13 -94v-650q0 -8 -12 -8h-113q-4 0 -4 -6t4 -6h441q4 0 4 6t-4 6h-113q-14 0 -14 8v664q0 31 15 64.5t45 63.5t73 48.5t98 18.5q27 0 54.5 -12.5 t49 -38t35 -64.5t13.5 -94v-650q0 -8 -15 -8h-110q-4 0 -4 -6t4 -6h438q4 0 4 6t-4 6h-113q-12 0 -12 8v572q0 82 -23.5 138t-67.5 92t-107.5 52.5t-141.5 16.5q-35 0 -72.5 -10.5t-71.5 -32t-59.5 -54t-35.5 -77.5q-29 80 -109 127t-221 47q-70 0 -136.5 -37t-95.5 -123 v135q0 6 -6 6h-307q-4 0 -4 -6t4 -6h113q12 0 12 -8v-832q0 -8 -12 -8h-113q-4 0 -4 -6z" />
<glyph unicode="n" horiz-adv-x="1073" d="M39 6q0 -6 4 -6h438q4 0 4 6t-4 6h-112q-12 0 -13 8v682q23 76 78 126.5t154 50.5q27 0 53.5 -12.5t48 -38t35.5 -65.5t14 -93v-650q0 -8 -14 -8h-113q-4 0 -4 -6t4 -6h441q4 0 4 6t-4 6h-113q-14 0 -14 8v529q0 164 -90.5 253t-247.5 89q-70 0 -136.5 -37t-95.5 -123 v135q0 6 -6 6h-307q-4 0 -4 -6t4 -6h113q12 0 12 -8v-832q0 -8 -12 -8h-113q-4 0 -4 -6z" />
<glyph unicode="o" horiz-adv-x="1024" d="M84 436q0 -94 34 -177t91 -144.5t135 -97t166 -35.5q90 0 168 35.5t136 97t92 144.5t34 177t-34 177t-92 144.5t-136 97.5t-168 36q-88 0 -166 -36t-135 -97.5t-91 -144.5t-34 -177zM276 436q0 160 23 255t70 140q29 27 64.5 37.5t76.5 10.5q45 0 81 -10.5t64 -37.5 q47 -45 70 -140t23 -255q0 -92 -5.5 -156.5t-16.5 -110.5t-28.5 -76t-42.5 -52q-29 -27 -64.5 -37t-80.5 -10q-41 0 -77 10t-64 37q-25 23 -42.5 52.5t-28.5 75.5t-16.5 110.5t-5.5 156.5z" />
<glyph unicode="p" horiz-adv-x="1054" d="M37 -627q0 -6 4 -6h438q4 0 4 6t-4 6h-112q-12 0 -13 9v680q35 -41 84 -63.5t109 -22.5q88 0 166 37.5t136 101t91 144.5t33 165q0 86 -34 168t-92.5 147.5t-137 105.5t-166.5 40q-59 0 -106.5 -22.5t-82.5 -63.5v61q0 6 -6 6h-307q-4 0 -4 -6t4 -6h113q14 0 14 -8v-1464 q0 -8 -14 -9h-113q-4 0 -4 -6zM354 111v673q33 47 83 71t106 24q41 0 78.5 -10.5t66.5 -37.5q47 -43 68.5 -143t21.5 -258q0 -156 -21.5 -251t-68.5 -138q-29 -29 -64.5 -38t-76.5 -9q-59 0 -114.5 28.5t-78.5 88.5z" />
<glyph unicode="q" horiz-adv-x="1032" d="M84 430q0 -84 33 -165t90 -144.5t135 -101t166 -37.5q86 0 132 36.5t62 77.5v-708q0 -8 -12 -9h-112q-4 0 -5 -6q0 -6 5 -6h436q4 0 4 6t-4 6h-113q-12 0 -12 9v1464q0 8 12 8h113q4 0 4 6t-4 6h-305q-6 0 -7 -6v-61q-74 86 -190 86q-88 0 -166 -40t-136 -105.5 t-92 -147.5t-34 -168zM276 430q0 317 93 401q29 27 65.5 37.5t77.5 10.5q57 0 106.5 -24t83.5 -71v-628q0 -63 -49 -112.5t-141 -49.5q-41 0 -78 9t-65 38q-92 84 -93 389z" />
<glyph unicode="r" horiz-adv-x="759" d="M37 6q0 -6 4 -6h438q4 0 4 6t-4 6h-112q-12 0 -13 8v674q16 55 34 89t36 50.5t34.5 21.5t30.5 5q23 0 39.5 -14.5t16.5 -40.5q0 -25 -13.5 -37t-13.5 -47q0 -29 24.5 -50.5t71.5 -21.5q39 0 68 29t29 70q0 66 -46.5 104.5t-119.5 38.5q-66 0 -114 -35t-77 -125v135 q0 6 -6 6h-307q-4 0 -4 -6t4 -6h113q14 0 14 -6v-834q0 -8 -14 -8h-113q-4 0 -4 -6z" />
<glyph unicode="s" horiz-adv-x="759" d="M90 -2q0 -4 4 -4q6 0 8 4q4 10 23.5 24.5t48.5 14.5t52.5 -8.5t50 -19.5t57.5 -19t74 -8q74 0 129 22.5t92 62t56.5 94t19.5 115.5q0 51 -20.5 92.5t-55.5 74t-82 55t-101 39.5q-117 35 -175 78.5t-58 121.5q0 72 42 107t114 35q37 0 74.5 -16.5t67.5 -45.5t49.5 -72 t19.5 -94q0 -4 6 -4t6 4v246q0 4 -6 4t-6 -4q0 -10 -9.5 -19.5t-33.5 -9.5q-33 0 -52.5 3t-37 8.5t-35 8.5t-43.5 3q-47 0 -92.5 -18.5t-79 -53.5t-54 -85t-20.5 -116q0 -94 66.5 -153t170.5 -90q117 -35 177.5 -79t60.5 -126q0 -92 -52 -134t-138 -42q-66 0 -121.5 26.5 t-94.5 70.5q-38 43 -60 99q-19 49 -19 97v14q0 4 -7 4q-6 0 -6 -4z" />
<glyph unicode="t" horiz-adv-x="608" d="M27 866q0 -6 4 -6h141q14 0 14 -6v-674q0 -100 43 -149t138 -49q88 0 138 50t70 130q2 4 -3 6t-5 -2q-20 -72 -57 -111t-78 -39q-27 0 -43 15.5t-16 44.5v778q0 6 14 6h170q4 0 4 6t-4 6h-170q-14 0 -14 9v333q0 4 -6 5q-4 0 -5 -5q-16 -45 -63 -76.5t-113 -39.5v-217 q0 -8 -14 -9h-141q-4 0 -4 -6z" />
<glyph unicode="u" horiz-adv-x="1052" d="M16 866q0 -6 4 -6h115q12 0 12 -6v-545q0 -164 90.5 -244.5t245.5 -80.5q35 0 71 8t67.5 27.5t57.5 50t40 73.5v-137q0 -6 4 -6h307q4 0 4 6t-4 6h-112q-14 0 -15 8v846q0 6 -4 6h-307q-4 0 -4 -6t4 -6h113q14 0 14 -6v-684q-25 -76 -80 -125t-156 -49q-27 0 -53.5 12 t-48 38t-34.5 65t-13 92v663q0 6 -6 6h-308q-4 0 -4 -6z" />
<glyph unicode="v" horiz-adv-x="862" d="M-66 866q0 -6 5 -6h100q12 0 16 -6l398 -868q2 -4 6 -4q6 0 8 4l293 790q20 57 29.5 70.5t19.5 13.5h111q4 0 4 6t-4 6h-269q-4 0 -4 -6t4 -6h111q10 0 9 -12t-23 -74l-211 -573l-281 653q-4 6 10 6h109q4 0 4 6t-4 6h-436q-4 0 -5 -6z" />
<glyph unicode="w" horiz-adv-x="1380" d="M-68 866q0 -6 5 -6h102q10 0 16 -6l381 -868q2 -4 8 -4t9 4l241 682l299 -682q2 -4 8 -4t9 4l278 790q20 57 29.5 70.5t19.5 13.5h109q4 0 4 6t-4 6h-268q-4 0 -4 -6t4 -6h110q4 0 7 -2t2 -10t-6 -25.5t-15 -48.5l-195 -549l-276 629q-4 6 10 6h113q4 0 4 6t-4 6h-420 q-4 0 -4 -6t4 -6h86q10 0 16 -6l78 -170l-164 -461l-276 631q-4 6 10 6h102q4 0 5 6q0 6 -5 6h-423q-4 0 -5 -6z" />
<glyph unicode="x" horiz-adv-x="958" d="M-10 866q0 -6 4 -6h102q12 0 19 -6l305 -463l-219 -293q-20 -29 -33.5 -46t-23 -26.5t-15.5 -11.5t-12 -2h-109q-4 0 -4 -6t4 -6h305q4 0 4 6t-4 6h-143q-10 0 -4 13.5t49 72.5l211 283l238 -361q6 -8 -9 -8h-104q-4 0 -4 -6t4 -6h446q4 0 4 6t-4 6h-102q-14 0 -16 8 l-340 512l178 244q43 57 56 70.5t24 13.5h112q4 0 4 6t-4 6h-303q-4 0 -4 -6t4 -6h139q4 0 6.5 -2t-0.5 -10t-14.5 -25.5t-31.5 -48.5l-173 -229l-204 309q-6 6 8 6h108q4 0 5 6q0 6 -5 6h-450q-4 0 -4 -6z" />
<glyph unicode="y" horiz-adv-x="858" d="M-68 866q0 -6 5 -6h98q12 0 16 -6l402 -874l-174 -467q-29 -80 -56.5 -105.5t-48.5 -25.5q-51 0 -51 28q0 16 6 27.5t14.5 23t14.5 24.5t6 32q0 31 -22.5 53t-63.5 22t-71 -33.5t-30 -82.5q0 -59 42 -92t104 -33q61 0 98 37t72 129l465 1259q20 57 29.5 70.5t19.5 13.5 h111q4 0 4 6t-4 6h-269q-4 0 -4 -6t4 -6h111q10 0 9 -13t-24 -73l-213 -571l-278 651q-4 6 10 6h109q4 0 4 6t-4 6h-436q-4 0 -5 -6z" />
<glyph unicode="z" horiz-adv-x="866" d="M55 16q-6 -16 2 -16h719q6 0 6 6v291q0 4 -6 4t-6 -4q0 -125 -73.5 -205t-235.5 -80h-201q-12 0 -10 8l516 838q10 14 -2 14h-643q-4 0 -4 -6v-264q0 -4 4 -4q6 0 6 4q0 119 66.5 188.5t214.5 69.5h151q12 0 10 -6z" />
<glyph unicode="{" horiz-adv-x="555" d="M156 -72q0 -94 23.5 -173t70.5 -135t116.5 -88t161.5 -32h31q4 0 4 6t-4 7h-31q-106 0 -159.5 74.5t-53.5 254.5q0 55 11.5 120t26 130.5t25.5 131t11 122.5q0 47 -28.5 95t-88.5 65q59 16 88 63t29 95q0 57 -11 122.5t-25.5 132t-26 130t-11.5 118.5q0 180 53.5 256 t159.5 76h31q4 0 4 4q0 6 -4 6h-31q-92 0 -161.5 -31.5t-116.5 -89t-70.5 -135t-23.5 -172.5q0 -80 22.5 -152.5t50 -137t50 -121t22.5 -99.5q0 -47 -33 -55q-10 -4 -22 -4q-16 0 -26.5 2t-22.5 2q-16 0 -17 -10q0 -12 17 -12q12 0 22 3t27 3q4 0 9 -1t13 -3q33 -8 33 -58 q0 -43 -22.5 -98t-50 -119.5t-50 -138.5t-22.5 -154z" />
<glyph unicode="|" horiz-adv-x="315" d="M152 -47q0 -4 6 -4t6 4v1595q0 4 -6 4t-6 -4v-1595z" />
<glyph unicode="}" horiz-adv-x="555" d="M-6 -494q0 -6 4 -6h31q90 0 159.5 32t116.5 88t71.5 135t24.5 173q0 80 -22.5 154t-50 138.5t-50 119.5t-22.5 98q0 49 33 58q16 4 20 4q16 0 27.5 -3t23.5 -3q14 0 15 12q0 10 -15 10q-12 0 -23 -2t-28 -2q-12 0 -20 4q-33 8 -33 55q0 43 22.5 99.5t50 121t50 137 t22.5 152.5q0 94 -24.5 172t-71.5 135.5t-116.5 89t-159.5 31.5h-31q-4 0 -4 -6q0 -4 4 -4h31q106 0 158.5 -75.5t52.5 -256.5q0 -55 -11.5 -118.5t-25 -130t-24.5 -132t-11 -122.5q0 -47 28.5 -94.5t88.5 -63.5q-59 -16 -88 -64.5t-29 -95.5q0 -57 11 -122.5t24.5 -131 t25 -130t11.5 -120.5q0 -180 -52.5 -254.5t-158.5 -74.5h-31q-4 0 -4 -7z" />
<glyph unicode="~" horiz-adv-x="827" d="M70 602q0 -4 6 -4t6 4q0 57 31.5 99t85.5 42q33 0 69.5 -19t77.5 -42t86 -42t98 -19q47 0 88 17t72 47t48.5 72t17.5 91q0 4 -6 4t-7 -4q0 -57 -31.5 -99t-84.5 -42q-35 0 -72 19t-77 42t-86 42t-97 19q-47 0 -88 -17t-72 -47t-48 -72t-17 -91z" />
<glyph unicode="&#xa0;" />
<glyph unicode="&#xa1;" horiz-adv-x="434" d="M98 -555q0 -90 35 -125t84 -35q51 0 86 35t35 125q0 68 -18.5 179.5t-40 245.5t-39 279.5t-17.5 280.5q0 4 -6 4t-6 -4q0 -135 -17.5 -280.5t-39 -279.5t-39 -245.5t-17.5 -179.5zM113 688q0 -45 31.5 -77.5t72.5 -32.5q45 0 76 32.5t31 77.5q0 47 -31 79t-76 32 q-41 0 -72.5 -32t-31.5 -79z" />
<glyph unicode="&#xa2;" horiz-adv-x="901" d="M82 436q0 -92 32.5 -173t89 -142.5t131.5 -98t161 -38.5v-146q0 -4 6 -4q8 0 8 4v144q113 2 201 54t147 140q2 4 -3 6t-7 0q-53 -86 -139 -136t-199 -52v885q78 0 111.5 -24t33.5 -77q0 -25 -4 -37t-8 -21t-8 -20.5t-4 -29.5q0 -29 22.5 -51.5t61.5 -22.5q41 0 65.5 21.5 t24.5 68.5q0 37 -19.5 74t-57.5 65.5t-93 47t-125 18.5v141q0 4 -8 4q-6 0 -6 -4v-143q-86 -4 -161 -40t-131.5 -97.5t-89 -142.5t-32.5 -173zM276 436q0 92 5.5 156.5t16.5 111t28.5 76t40.5 51.5q27 25 59.5 34t69.5 12v-883q-37 2 -70 12t-59 35q-23 23 -40.5 52.5 t-28.5 75.5t-16.5 110.5t-5.5 156.5z" />
<glyph unicode="&#xa3;" horiz-adv-x="1179" d="M49 70q0 -31 12.5 -50.5t31 -32t39 -17.5t36.5 -5q55 0 121.5 33t124.5 82q80 -39 181 -77t214 -38q66 0 125 26.5t104 68.5t74 94.5t33 105.5q0 4 -5 5t-7 -3q-6 -55 -40 -101t-98 -46q-88 0 -153.5 10t-119.5 25.5t-101.5 33t-98.5 29.5q45 66 69.5 141.5t24.5 143.5 q0 63 -4 117.5t-12 101.5h203q4 0 4 6t-4 6h-203q-16 113 -35.5 198t-19.5 171q0 193 50 284t142 91q66 0 92.5 -26t26.5 -67q0 -23 -7 -37t-15.5 -27t-15.5 -27.5t-7 -35.5q0 -35 22.5 -58.5t75.5 -23.5q47 0 80 34t33 77q0 35 -21.5 71t-56.5 65.5t-83 49t-99 19.5 q-94 0 -171 -43t-131 -112.5t-84 -160t-30 -182.5q0 -63 17.5 -128.5t42.5 -131.5h-181q-4 0 -4 -6t4 -6h183q41 -106 80.5 -203.5t39.5 -175.5q0 -29 -7 -61.5t-23 -59.5q-41 10 -92.5 16.5t-112.5 6.5q-57 0 -102.5 -16.5t-77 -42t-48 -55.5t-16.5 -56zM59 68 q0 43 30 67.5t87 24.5q49 0 104.5 -21.5t114.5 -50.5q-51 -49 -114.5 -80t-106.5 -31q-16 0 -35.5 5.5t-37 15.5t-30 27.5t-12.5 42.5z" />
<glyph unicode="&#xa5;" horiz-adv-x="1269" d="M-53 1446q0 -6 4 -6h190q14 0 19 -8l340 -648h-326q-4 0 -4 -6t4 -6h334l63 -127v-133h-397q-4 0 -4 -6t4 -6h397v-480q0 -8 -12 -8h-184q-4 0 -4 -6t4 -6h588q4 0 4 6t-4 6h-183q-14 0 -14 8v480h399q4 0 4 6t-4 6h-399v156l49 104h350q4 0 4 6t-4 6h-344l273 570 q27 57 39 71.5t22 14.5h162q4 0 4 6t-4 6h-418q-4 0 -4 -6t4 -6h205q10 0 7 -13.5t-32 -72.5l-309 -652l-383 730q-4 8 6 8h223q4 0 5 6q0 6 -5 6h-665q-4 0 -4 -6z" />
<glyph unicode="&#xa7;" horiz-adv-x="1067" d="M102 442q0 -113 51.5 -187.5t127 -128.5t166 -96t166 -90.5t127 -109.5t51.5 -154q0 -147 -85 -230t-227 -83q-43 0 -82 12.5t-69.5 34t-49 50t-18.5 63.5t12.5 52t12.5 44q0 37 -27 57.5t-68 20.5q-35 0 -59.5 -22.5t-24.5 -69.5q0 -43 33 -88t85 -82t120 -60.5 t135 -23.5q98 0 177 35.5t134.5 98t85 145.5t29.5 177q0 86 -34.5 151t-92.5 118q47 47 82 88t58.5 82t35 86t11.5 100q0 113 -51.5 187.5t-127 129t-166 96.5t-166 90t-127 109.5t-51.5 153.5q0 145 85 229t229 84q82 0 128 -31.5t46 -99.5q0 -35 -11.5 -52t-11.5 -44 q0 -37 26 -57.5t67 -20.5q35 0 60.5 22.5t25.5 69.5q0 43 -27 84t-72 72t-104.5 50.5t-126.5 19.5q-98 0 -177 -36t-134.5 -98.5t-85 -145.5t-29.5 -177q0 -86 34.5 -150.5t90.5 -117.5q-92 -90 -139.5 -169t-47.5 -188zM176 573q0 27 11.5 55.5t28.5 57.5t38.5 55.5 t44.5 49.5q53 -47 117.5 -85t130 -73t127 -69t109.5 -73.5t78 -86t30 -105.5q0 -53 -39 -111.5t-82 -103.5q-53 47 -117.5 85t-130 72.5t-128 68.5t-110.5 73t-78 85t-30 105z" />
<glyph unicode="&#xa8;" horiz-adv-x="901" d="M170 1210q0 -41 26.5 -68.5t63.5 -27.5q39 0 66.5 27.5t27.5 68.5t-27.5 69t-66.5 28q-37 0 -63.5 -28t-26.5 -69zM551 1210q0 -41 26.5 -68.5t65.5 -27.5q37 0 63.5 27.5t26.5 68.5t-26.5 69t-63.5 28q-39 0 -65.5 -28t-26.5 -69z" />
<glyph unicode="&#xa9;" horiz-adv-x="1724" d="M104 727q0 -158 59.5 -297t163 -242.5t241 -163t294.5 -59.5q156 0 294 59.5t241.5 163t163 242.5t59.5 297t-59.5 296t-163 241.5t-241.5 163t-294 59.5q-158 0 -295 -59.5t-240.5 -163t-163 -241.5t-59.5 -296zM117 727q0 156 58 292t159.5 237.5t238 160t289.5 58.5 q154 0 289 -58.5t236.5 -160t161 -237.5t59.5 -292t-59.5 -293t-161 -238.5t-236.5 -160t-289 -58.5t-290 58.5t-237.5 160t-159.5 238.5t-58 293zM469 737q0 -92 30.5 -174t86 -145.5t131.5 -100t166 -36.5q51 0 110.5 19t104.5 19q27 0 40 -12t15 -22q0 -4 5 -3t7 3v303 q-2 2 -8 2q-4 0 -4 -2q0 -61 -20.5 -114.5t-57.5 -93.5t-86 -63.5t-106 -23.5q-43 0 -85 9t-71 38q-47 45 -70.5 141.5t-23.5 255.5q0 160 23.5 256.5t70.5 141.5q29 29 68 38t82 9q45 0 90 -23.5t81.5 -60.5t59 -84t22.5 -92q0 -2 5 -2q4 0 6 2v268q-2 2 -6 2t-5 -2 q-4 -10 -20 -19.5t-43 -9.5q-43 0 -94 16.5t-96 16.5q-90 0 -165 -37t-128.5 -100.5t-84 -145.5t-30.5 -174z" />
<glyph unicode="&#xaa;" horiz-adv-x="706" d="M68 973q0 -45 18 -75t47 -48.5t66 -26.5t73 -8q61 0 106.5 24.5t61.5 73.5q8 -43 42 -70.5t83 -27.5q43 0 72 18t35 41q2 2 -2 5.5t-6 1.5q-4 -12 -18.5 -25.5t-33.5 -13.5q-39 0 -39 51v324q0 141 -64.5 205.5t-180.5 64.5q-45 0 -81 -12.5t-60.5 -31t-38 -40 t-13.5 -41.5q0 -27 15.5 -48.5t50.5 -21.5t51 16.5t16 39.5q0 18 -6 28t-6 29q0 39 21.5 54.5t50.5 15.5q41 0 71.5 -30t30.5 -118v-115q0 -25 -51 -34t-113 -13q-23 -2 -56.5 -10t-65 -28.5t-54 -57.5t-22.5 -96zM205 973q0 104 26.5 140t63.5 40q35 8 73 12t62 21v-242 q0 -43 -37 -78t-90 -35q-18 0 -36.5 5.5t-32 20.5t-21.5 43t-8 73z" />
<glyph unicode="&#xab;" horiz-adv-x="774" d="M80 432q20 -10 68.5 -41t97.5 -75t87 -98t38 -116q0 -6 8 -6t8 6q0 49 -14.5 99.5t-36 95.5t-48 81t-48.5 58q23 20 49 57t47.5 82.5t36 94.5t14.5 98q0 6 -8 6t-8 -6q0 -61 -38 -115.5t-87 -98.5t-97.5 -73.5t-68.5 -40.5q-8 -4 0 -8zM387 432q20 -10 68.5 -41t97.5 -75 t86 -98t37 -116q0 -6 8 -6q10 0 10 6q0 49 -14 99.5t-36.5 95.5t-48.5 81t-48 58q23 20 48.5 57t48 82.5t36.5 94.5t14 98q0 6 -10 6q-8 0 -8 -6q0 -61 -37 -115.5t-86 -98.5t-97 -73.5t-69 -40.5q-8 -4 0 -8z" />
<glyph unicode="&#xad;" horiz-adv-x="655" d="M57 426h508q4 35 10.5 64.5t22.5 52.5q8 8 0 8h-506q-4 -35 -11 -64.5t-24 -52.5q-4 -8 0 -8z" />
<glyph unicode="&#xae;" horiz-adv-x="1724" d="M104 727q0 -158 59.5 -297t163 -242.5t241 -163t294.5 -59.5q156 0 294 59.5t241.5 163t163 242.5t59.5 297t-59.5 296t-163 241.5t-241.5 163t-294 59.5q-158 0 -295 -59.5t-240.5 -163t-163 -241.5t-59.5 -296zM117 727q0 156 58 292t159.5 237.5t238 160t289.5 58.5 q154 0 289 -58.5t236.5 -160t161 -237.5t59.5 -292t-59.5 -293t-161 -238.5t-236.5 -160t-289 -58.5t-290 58.5t-237.5 160t-159.5 238.5t-58 293zM475 307q0 -6 2 -6h404q4 0 4 6t-4 6h-123q-8 0 -8 4v431h102q84 0 137 -36t53 -118v-76q0 -66 16.5 -111t44 -73.5 t63.5 -40.5t75 -12q41 0 69 12.5t46 30.5q0 2 -2 7t-4 3q-12 -12 -33 -23.5t-45 -11.5q-35 0 -53.5 29.5t-18.5 77.5v110q0 100 -71.5 169t-233.5 69q57 0 106.5 16t85 44t55 64.5t19.5 79.5q0 92 -80 152.5t-219 60.5h-385q-2 0 -2 -6q0 -4 2 -4h111q8 0 8 -6v-838 q0 -4 -8 -4h-111q-2 0 -2 -6zM750 758v397q0 6 8 6h73q88 0 132.5 -45t44.5 -162t-34 -156.5t-122 -39.5h-102z" />
<glyph unicode="&#xaf;" horiz-adv-x="815" d="M92 1235q0 -12 4 -12h623q4 0 4 12q0 14 -4 14h-623q-4 0 -4 -14z" />
<glyph unicode="&#xb0;" horiz-adv-x="577" d="M131 1303q0 -66 46 -112t112 -46t111.5 46t45.5 112t-46 111.5t-111 45.5q-66 0 -112 -46t-46 -111zM145 1303q0 59 42 102t102 43q59 0 101 -43t42 -102t-42 -102.5t-101 -43.5t-101.5 43t-42.5 103z" />
<glyph unicode="&#xb4;" horiz-adv-x="720" d="M87 1060q1 -7 5 -5q143 35 233.5 74.5t140.5 81.5t67.5 81t17.5 70q0 29 -18.5 47t-49.5 18q-43 0 -68.5 -46t-61.5 -107.5t-95 -120.5t-168 -86q-4 0 -3 -7z" />
<glyph unicode="&#xb6;" horiz-adv-x="1312" d="M102 725q0 -150 53.5 -282t144.5 -230t214 -155.5t262 -57.5h457q4 0 4 6t-4 6h-180q-10 0 -11 8v1412q0 8 11 8h180q4 0 4 6t-4 6h-457q-139 0 -262 -57.5t-214 -155.5t-144.5 -231.5t-53.5 -282.5zM811 20v1412q0 8 12 8h191q14 0 14 -8v-1412q0 -8 -14 -8h-191 q-12 0 -12 8z" />
<glyph unicode="&#xb7;" horiz-adv-x="352" d="M76 725q0 -47 30.5 -79t73.5 -32t73 32t30 79q0 45 -30 77t-73 32t-73.5 -32t-30.5 -77z" />
<glyph unicode="&#xb8;" horiz-adv-x="589" d="M143 -369q0 -29 33 -61.5t94 -32.5q72 0 109 42t37 112q0 57 -23.5 83.5t-51.5 44t-51.5 36t-23.5 61.5q0 16 7.5 36.5t15.5 31.5q0 4 -5 5t-8 -3q-16 -20 -30.5 -61.5t-14.5 -80.5q0 -53 26 -78.5t56.5 -42t56 -31t25.5 -40.5q0 -47 -35.5 -76t-89.5 -29q-53 0 -53 41 q0 16 10.5 22.5t10.5 31.5q0 23 -13.5 32t-31.5 9q-23 0 -36.5 -15.5t-13.5 -36.5z" />
<glyph unicode="&#xba;" horiz-adv-x="796" d="M84 1149q0 -70 24.5 -130.5t66.5 -106.5t99.5 -72.5t122.5 -26.5q66 0 124.5 26.5t101.5 72.5t67.5 106.5t24.5 130.5t-24.5 131t-67.5 107.5t-101.5 73t-124.5 26.5t-123 -26.5t-99 -73t-66.5 -107.5t-24.5 -131zM229 1149q0 119 15.5 188.5t50.5 102.5q23 20 47.5 27.5 t54.5 7.5q33 0 58.5 -7.5t46.5 -27.5q35 -33 50 -102.5t15 -188.5q0 -66 -4 -114t-12 -81.5t-20.5 -56.5t-28.5 -39q-37 -35 -105 -35q-61 0 -102 35q-16 16 -28.5 39t-20.5 56.5t-12.5 81.5t-4.5 114z" />
<glyph unicode="&#xbb;" horiz-adv-x="774" d="M80 102q0 -6 8 -6q10 0 10 6q0 61 37 115.5t86 98.5t97.5 75t68.5 41q8 4 0 8q-20 10 -68.5 40t-97.5 74t-86 98.5t-37 115.5q0 6 -10 6q-8 0 -8 -6q0 -49 14.5 -98t37 -94.5t48 -82t47.5 -57.5q-23 -23 -48 -58.5t-47.5 -80.5t-37 -95t-14.5 -100zM385 102q0 -6 8 -6 q10 0 10 6q0 61 37 115.5t86 98.5t97.5 75t68.5 41q8 4 0 8q-20 10 -68.5 40t-97.5 74t-86 98.5t-37 115.5q0 6 -10 6q-8 0 -8 -6q0 -49 14.5 -98t37 -94.5t48 -82t47.5 -57.5q-23 -23 -48 -58.5t-47.5 -80.5t-37 -95t-14.5 -100z" />
<glyph unicode="&#xbf;" horiz-adv-x="849" d="M68 -289q0 -94 33.5 -173t93 -135t140.5 -87t177 -31q70 0 128 21.5t99 57.5t63.5 80t22.5 89q0 59 -29.5 86t-78.5 27t-78 -28t-29 -64q0 -25 5.5 -37.5t10.5 -24.5t10 -26.5t5 -40.5q0 -70 -27.5 -98.5t-101.5 -28.5q-41 0 -79 9t-64 38q-25 23 -42.5 53.5t-28.5 73.5 t-16.5 102t-5.5 137q0 109 2.5 174.5t7.5 104.5t14 56t24 30q16 16 47.5 26.5t60.5 10.5q37 0 84 -15.5t70 -56.5q0 -2 3 -1t3 5q0 2 -1 3t-1 5v377q0 4 -6 4q-4 0 -4 -4v-360q-29 33 -71 44t-77 11q-74 0 -139.5 -29.5t-115.5 -84t-79.5 -130.5t-29.5 -170zM479 688 q0 -45 31 -77.5t76 -32.5q43 0 73.5 32.5t30.5 77.5q0 47 -30.5 79t-73.5 32q-45 0 -76 -32t-31 -79z" />
<glyph unicode="&#xc0;" horiz-adv-x="1368" d="M-49 6q0 -6 4 -6h387q4 0 4 6t-4 6h-184q-10 0 -7 15.5t23 70.5l148 402h471l172 -480q0 -8 -11 -8h-194q-4 0 -4 -6t4 -6h667q4 0 5 6q0 6 -5 6h-174q-12 0 -16 8l-561 1461q-2 4 -6 4t-6 -4l-502 -1383q-23 -59 -30 -72.5t-21 -13.5h-156q-4 0 -4 -6zM270 1884 q0 -31 18.5 -70t68.5 -81t140 -81.5t234 -74.5q4 -2 5 5t-3 7q-109 27 -168.5 86t-95 120.5t-61.5 107.5t-69 46q-33 0 -51 -18t-18 -47zM324 512l233 643l229 -643h-462z" />
<glyph unicode="&#xc1;" horiz-adv-x="1368" d="M-49 6q0 -6 4 -6h387q4 0 4 6t-4 6h-184q-10 0 -7 15.5t23 70.5l148 402h471l172 -480q0 -8 -11 -8h-194q-4 0 -4 -6t4 -6h667q4 0 5 6q0 6 -5 6h-174q-12 0 -16 8l-561 1461q-2 4 -6 4t-6 -4l-502 -1383q-23 -59 -30 -72.5t-21 -13.5h-156q-4 0 -4 -6zM324 512l233 643 l229 -643h-462zM626 1582q1 -7 5 -5q143 35 233.5 74.5t140.5 81.5t67.5 81t17.5 70q0 29 -18.5 47t-49.5 18q-43 0 -68.5 -46t-61.5 -107.5t-95 -120.5t-168 -86q-4 0 -3 -7z" />
<glyph unicode="&#xc2;" horiz-adv-x="1368" d="M-49 6q0 -6 4 -6h387q4 0 4 6t-4 6h-184q-10 0 -7 15.5t23 70.5l148 402h471l172 -480q0 -8 -11 -8h-194q-4 0 -4 -6t4 -6h667q4 0 5 6q0 6 -5 6h-174q-12 0 -16 8l-561 1461q-2 4 -6 4t-6 -4l-502 -1383q-23 -59 -30 -72.5t-21 -13.5h-156q-4 0 -4 -6zM324 512l233 643 l229 -643h-462zM414 1605q-2 -4 1 -7t5 -1l248 174l268 -174q4 -2 8 1t2 7q-90 100 -154.5 179t-109.5 149q-4 8 -8 0q-45 -70 -109.5 -148.5t-150.5 -179.5z" />
<glyph unicode="&#xc3;" horiz-adv-x="1368" d="M-49 6q0 -6 4 -6h387q4 0 4 6t-4 6h-184q-10 0 -7 15.5t23 70.5l148 402h471l172 -480q0 -8 -11 -8h-194q-4 0 -4 -6t4 -6h667q4 0 5 6q0 6 -5 6h-174q-12 0 -16 8l-561 1461q-2 4 -6 4t-6 -4l-502 -1383q-23 -59 -30 -72.5t-21 -13.5h-156q-4 0 -4 -6zM324 512l233 643 l229 -643h-462zM336 1642q0 -4 6 -4t6 4q0 59 31.5 100.5t85.5 41.5q33 0 69.5 -19.5t77.5 -42t86 -42t98 -19.5q47 0 88 17.5t72 47t48.5 71.5t17.5 91q0 4 -6 4t-7 -4q0 -59 -31.5 -99t-84.5 -40q-35 0 -72 18.5t-77 42t-86 42t-97 18.5q-96 0 -160.5 -64.5t-64.5 -163.5z " />
<glyph unicode="&#xc4;" horiz-adv-x="1368" d="M-49 6q0 -6 4 -6h387q4 0 4 6t-4 6h-184q-10 0 -7 15.5t23 70.5l148 402h471l172 -480q0 -8 -11 -8h-194q-4 0 -4 -6t4 -6h667q4 0 5 6q0 6 -5 6h-174q-12 0 -16 8l-561 1461q-2 4 -6 4t-6 -4l-502 -1383q-23 -59 -30 -72.5t-21 -13.5h-156q-4 0 -4 -6zM324 512l233 643 l229 -643h-462zM397 1732q0 -41 26.5 -68.5t63.5 -27.5q39 0 66.5 27.5t27.5 68.5t-27.5 69t-66.5 28q-37 0 -63.5 -28t-26.5 -69zM778 1732q0 -41 26.5 -68.5t65.5 -27.5q37 0 63.5 27.5t26.5 68.5t-26.5 69t-63.5 28q-39 0 -65.5 -28t-26.5 -69z" />
<glyph unicode="&#xc5;" horiz-adv-x="1368" d="M-49 6q0 -6 4 -6h387q4 0 4 6t-4 6h-184q-10 0 -7 15.5t23 70.5l148 402h471l172 -480q0 -8 -11 -8h-194q-4 0 -4 -6t4 -6h667q4 0 5 6q0 6 -5 6h-174q-12 0 -16 8l-557 1450q61 4 104 50.5t43 107.5q0 66 -46 112t-111 46q-66 0 -112 -46t-46 -112q0 -61 43 -106 t104 -52l-497 -1372q-23 -59 -30 -72.5t-21 -13.5h-156q-4 0 -4 -6zM324 512l233 643l229 -643h-462zM526 1628q0 59 42 102.5t102 43.5q59 0 101 -43.5t42 -102.5t-42 -102t-101 -43t-101.5 43t-42.5 102z" />
<glyph unicode="&#xc6;" horiz-adv-x="1925" d="M-106 8q0 -4 4 -8h383q4 4 4 8t-4 4h-185q-10 0 -4 15.5t39 70.5l281 504h469v-582q0 -8 -13 -8h-184q-4 0 -4 -6t4 -6h1186q6 0 6 6v438q0 4 -6 5q-6 0 -6 -5q0 -80 -27 -156.5t-85 -138t-149.5 -99.5t-218.5 -38h-237q-12 0 -12 8v719h77q61 0 112.5 -20.5t86.5 -55 t54.5 -81.5t19.5 -99q0 -4 4 -4t4 4v525q0 4 -4 4t-4 -4q0 -53 -19.5 -99.5t-54.5 -81t-86 -55t-113 -20.5h-77v680q0 8 12 8h231q98 0 169 -35t117 -90t68.5 -125t22.5 -141q0 -4 4 -5q6 0 6 5v397q0 6 -6 6h-1075q-4 0 -4 -6t4 -6h186l-753 -1342q-16 -31 -26.5 -47 t-17.5 -25.5t-12.5 -11.5t-11.5 -2h-151q-4 0 -4 -4zM420 612l461 822v-822h-461z" />
<glyph unicode="&#xc7;" horiz-adv-x="1351" d="M102 725q0 -145 47.5 -276.5t130 -234.5t198.5 -168.5t251 -78.5q-14 -23 -24.5 -57.5t-10.5 -67.5q0 -53 25.5 -78.5t55.5 -42t55.5 -31t25.5 -40.5q0 -47 -35 -76t-88 -29t-53 41q0 16 10 22.5t10 31.5q0 23 -13 32t-32 9q-23 0 -36 -15.5t-13 -36.5q0 -29 32 -61.5 t95 -32.5q72 0 109 43t37 113q0 57 -24 82.5t-51.5 43t-51 36t-23.5 61.5q0 25 14 53q55 -6 109.5 3.5t106 22.5t99.5 25.5t89 12.5q43 0 65.5 -21.5t26.5 -40.5q2 -2 6 -2q6 0 6 2v508q0 4 -6 4t-6 -4q0 -100 -35 -191t-95 -160t-143 -110t-178 -41q-72 0 -140 17.5 t-116 62.5q-80 76 -117.5 238t-37.5 432q0 272 38 433t117 237q47 47 111 63.5t135 16.5q76 0 152 -40t136 -103.5t97 -142.5t37 -155q0 -4 6 -4t6 4v447q0 4 -6 4t-6 -4q-4 -16 -30.5 -32.5t-71.5 -16.5q-37 0 -77 8t-82 19t-83 19.5t-78 8.5q-147 0 -271 -61.5t-214 -166 t-140.5 -242.5t-50.5 -292z" />
<glyph unicode="&#xc8;" horiz-adv-x="1318" d="M76 6q0 -6 4 -6h1184q6 0 6 6v438q0 4 -6 5q-6 0 -7 -5q0 -80 -26.5 -156.5t-85 -138t-149.5 -99.5t-218 -38h-237q-12 0 -13 8v719h78q61 0 111.5 -20.5t86.5 -55t54.5 -81.5t18.5 -99q0 -4 6 -4t6 4v525q0 4 -6 4t-6 -4q0 -53 -18.5 -99.5t-54.5 -81t-86 -55 t-112 -20.5h-78v680q0 8 13 8h231q98 0 169 -35t117 -90t67.5 -125t21.5 -141q0 -4 6 -5q6 0 6 5v397q0 6 -6 6h-1073q-4 0 -4 -6t4 -6h180q14 0 14 -8v-1412q0 -8 -14 -8h-180q-4 0 -4 -6zM424 1884q0 -31 18.5 -70t68.5 -81t140 -81.5t234 -74.5q4 -2 5 5t-3 7 q-109 27 -168.5 86t-95 120.5t-61.5 107.5t-69 46q-33 0 -51 -18t-18 -47z" />
<glyph unicode="&#xc9;" horiz-adv-x="1318" d="M76 6q0 -6 4 -6h1184q6 0 6 6v438q0 4 -6 5q-6 0 -7 -5q0 -80 -26.5 -156.5t-85 -138t-149.5 -99.5t-218 -38h-237q-12 0 -13 8v719h78q61 0 111.5 -20.5t86.5 -55t54.5 -81.5t18.5 -99q0 -4 6 -4t6 4v525q0 4 -6 4t-6 -4q0 -53 -18.5 -99.5t-54.5 -81t-86 -55 t-112 -20.5h-78v680q0 8 13 8h231q98 0 169 -35t117 -90t67.5 -125t21.5 -141q0 -4 6 -5q6 0 6 5v397q0 6 -6 6h-1073q-4 0 -4 -6t4 -6h180q14 0 14 -8v-1412q0 -8 -14 -8h-180q-4 0 -4 -6zM585 1582q1 -7 5 -5q143 35 233.5 74.5t140.5 81.5t67.5 81t17.5 70q0 29 -18.5 47 t-49.5 18q-43 0 -68.5 -46t-61.5 -107.5t-95 -120.5t-168 -86q-4 0 -3 -7z" />
<glyph unicode="&#xca;" horiz-adv-x="1318" d="M76 6q0 -6 4 -6h1184q6 0 6 6v438q0 4 -6 5q-6 0 -7 -5q0 -80 -26.5 -156.5t-85 -138t-149.5 -99.5t-218 -38h-237q-12 0 -13 8v719h78q61 0 111.5 -20.5t86.5 -55t54.5 -81.5t18.5 -99q0 -4 6 -4t6 4v525q0 4 -6 4t-6 -4q0 -53 -18.5 -99.5t-54.5 -81t-86 -55 t-112 -20.5h-78v680q0 8 13 8h231q98 0 169 -35t117 -90t67.5 -125t21.5 -141q0 -4 6 -5q6 0 6 5v397q0 6 -6 6h-1073q-4 0 -4 -6t4 -6h180q14 0 14 -8v-1412q0 -8 -14 -8h-180q-4 0 -4 -6zM430 1605q-2 -4 1 -7t5 -1l248 174l268 -174q4 -2 8 1t2 7q-90 100 -154.5 179 t-109.5 149q-4 8 -8 0q-45 -70 -109.5 -148.5t-150.5 -179.5z" />
<glyph unicode="&#xcb;" horiz-adv-x="1318" d="M76 6q0 -6 4 -6h1184q6 0 6 6v438q0 4 -6 5q-6 0 -7 -5q0 -80 -26.5 -156.5t-85 -138t-149.5 -99.5t-218 -38h-237q-12 0 -13 8v719h78q61 0 111.5 -20.5t86.5 -55t54.5 -81.5t18.5 -99q0 -4 6 -4t6 4v525q0 4 -6 4t-6 -4q0 -53 -18.5 -99.5t-54.5 -81t-86 -55 t-112 -20.5h-78v680q0 8 13 8h231q98 0 169 -35t117 -90t67.5 -125t21.5 -141q0 -4 6 -5q6 0 6 5v397q0 6 -6 6h-1073q-4 0 -4 -6t4 -6h180q14 0 14 -8v-1412q0 -8 -14 -8h-180q-4 0 -4 -6zM422 1732q0 -41 26.5 -68.5t63.5 -27.5q39 0 66.5 27.5t27.5 68.5t-27.5 69 t-66.5 28q-37 0 -63.5 -28t-26.5 -69zM803 1732q0 -41 26.5 -68.5t65.5 -27.5q37 0 63.5 27.5t26.5 68.5t-26.5 69t-63.5 28q-39 0 -65.5 -28t-26.5 -69z" />
<glyph unicode="&#xcc;" horiz-adv-x="749" d="M78 6q0 -6 4 -6h643q4 0 4 6t-4 6h-184q-12 0 -13 8v1412q0 8 13 8h184q4 0 4 6t-4 6h-643q-4 0 -4 -6t4 -6h180q12 0 12 -8v-1412q0 -8 -12 -8h-180q-4 0 -4 -6zM152 1884q0 -31 18 -69.5t68.5 -80.5t140.5 -82t233 -75q4 -2 5 5t-3 7q-109 27 -168 86.5t-95 121 t-61.5 107.5t-68.5 46q-33 0 -51 -18.5t-18 -47.5z" />
<glyph unicode="&#xcd;" horiz-adv-x="749" d="M78 6q0 -6 4 -6h643q4 0 4 6t-4 6h-184q-12 0 -13 8v1412q0 8 13 8h184q4 0 4 6t-4 6h-643q-4 0 -4 -6t4 -6h180q12 0 12 -8v-1412q0 -8 -12 -8h-180q-4 0 -4 -6zM247 1582q1 -7 5 -5q143 35 233 75t140.5 82t68 80.5t17.5 69.5q0 29 -18.5 47.5t-49.5 18.5 q-43 0 -68.5 -46t-61.5 -107.5t-95.5 -121t-167.5 -86.5q-4 0 -3 -7z" />
<glyph unicode="&#xce;" horiz-adv-x="749" d="M78 6q0 -6 4 -6h643q4 0 4 6t-4 6h-184q-12 0 -13 8v1412q0 8 13 8h184q4 0 4 6t-4 6h-643q-4 0 -4 -6t4 -6h180q12 0 12 -8v-1412q0 -8 -12 -8h-180q-4 0 -4 -6zM141 1606q-2 -4 1 -7.5t5 -1.5l248 175l269 -175q4 -2 8 1.5t2 7.5q-90 100 -154.5 179t-109.5 148 q-4 8 -9 0q-45 -70 -109.5 -148.5t-150.5 -178.5z" />
<glyph unicode="&#xcf;" horiz-adv-x="749" d="M78 6q0 -6 4 -6h643q4 0 4 6t-4 6h-184q-12 0 -13 8v1412q0 8 13 8h184q4 0 4 6t-4 6h-643q-4 0 -4 -6t4 -6h180q12 0 12 -8v-1412q0 -8 -12 -8h-180q-4 0 -4 -6zM129 1733q0 -41 26.5 -69t63.5 -28q39 0 66.5 28t27.5 69t-27.5 68.5t-66.5 27.5q-37 0 -63.5 -27.5 t-26.5 -68.5zM510 1733q0 -41 26.5 -69t65.5 -28q37 0 63.5 28t26.5 69t-26.5 68.5t-63.5 27.5q-39 0 -65.5 -27.5t-26.5 -68.5z" />
<glyph unicode="&#xd1;" horiz-adv-x="1511" d="M68 6q0 -6 4 -6h403q4 0 4 6t-4 6h-184q-10 0 -10 8v1405l964 -1452q4 -6 10.5 -5t6.5 5v1459q0 8 12 8h182q4 0 4 6t-4 6h-403q-4 0 -4 -6t4 -6h182q12 0 12 -8v-1024l-665 1007q-14 23 -24.5 30t-20.5 7h-465q-4 0 -4 -6t4 -6h180q12 0 12 -8v-1412q0 -8 -12 -8h-180 q-4 0 -4 -6zM451 1642q0 -4 6 -4t6 4q0 59 31.5 100.5t85.5 41.5q33 0 69.5 -19.5t77.5 -42t86 -42t98 -19.5q47 0 88 17.5t72 47t48.5 71.5t17.5 91q0 4 -6 4t-7 -4q0 -59 -31.5 -99t-84.5 -40q-35 0 -72 18.5t-77 42t-86 42t-97 18.5q-96 0 -160.5 -64.5t-64.5 -163.5z " />
<glyph unicode="&#xd2;" horiz-adv-x="1554" d="M102 725q0 -158 53.5 -296t144.5 -241.5t214 -163t262 -59.5t262 59.5t215.5 163t145.5 241.5t53 296t-53 297t-145.5 242.5t-215.5 163t-262 59.5q-147 0 -270 -61.5t-213 -166t-140.5 -242.5t-50.5 -292zM377 725q0 272 39 433t116 237q47 47 110 63.5t134 16.5 q74 0 135.5 -16.5t110.5 -63.5q78 -76 117 -237t39 -433q0 -154 -9.5 -264.5t-29 -187t-49 -129t-68.5 -89.5q-49 -45 -110.5 -62.5t-135.5 -17.5q-72 0 -134 17.5t-110 62.5q-39 37 -68.5 89.5t-49 129t-28.5 187t-9 264.5zM408 1884q0 -31 18.5 -70t68.5 -81t140 -81.5 t234 -74.5q4 -2 5 5t-3 7q-109 27 -168.5 86t-95 120.5t-61.5 107.5t-69 46q-33 0 -51 -18t-18 -47z" />
<glyph unicode="&#xd3;" horiz-adv-x="1554" d="M102 725q0 -158 53.5 -296t144.5 -241.5t214 -163t262 -59.5t262 59.5t215.5 163t145.5 241.5t53 296t-53 297t-145.5 242.5t-215.5 163t-262 59.5q-147 0 -270 -61.5t-213 -166t-140.5 -242.5t-50.5 -292zM377 725q0 272 39 433t116 237q47 47 110 63.5t134 16.5 q74 0 135.5 -16.5t110.5 -63.5q78 -76 117 -237t39 -433q0 -154 -9.5 -264.5t-29 -187t-49 -129t-68.5 -89.5q-49 -45 -110.5 -62.5t-135.5 -17.5q-72 0 -134 17.5t-110 62.5q-39 37 -68.5 89.5t-49 129t-28.5 187t-9 264.5zM636 1582q1 -7 5 -5q143 35 233.5 74.5 t140.5 81.5t67.5 81t17.5 70q0 29 -18.5 47t-49.5 18q-43 0 -68.5 -46t-61.5 -107.5t-95 -120.5t-168 -86q-4 0 -3 -7z" />
<glyph unicode="&#xd4;" horiz-adv-x="1554" d="M102 725q0 -158 53.5 -296t144.5 -241.5t214 -163t262 -59.5t262 59.5t215.5 163t145.5 241.5t53 296t-53 297t-145.5 242.5t-215.5 163t-262 59.5q-147 0 -270 -61.5t-213 -166t-140.5 -242.5t-50.5 -292zM377 725q0 272 39 433t116 237q47 47 110 63.5t134 16.5 q74 0 135.5 -16.5t110.5 -63.5q78 -76 117 -237t39 -433q0 -154 -9.5 -264.5t-29 -187t-49 -129t-68.5 -89.5q-49 -45 -110.5 -62.5t-135.5 -17.5q-72 0 -134 17.5t-110 62.5q-39 37 -68.5 89.5t-49 129t-28.5 187t-9 264.5zM524 1605q-2 -4 1 -7t5 -1l248 174l268 -174 q4 -2 8 1t2 7q-90 100 -154.5 179t-109.5 149q-4 8 -8 0q-45 -70 -109.5 -148.5t-150.5 -179.5z" />
<glyph unicode="&#xd5;" horiz-adv-x="1626" d="M102 725q0 -158 53.5 -296t144.5 -241.5t214 -163t262 -59.5t262 59.5t215.5 163t145.5 241.5t53 296t-53 297t-145.5 242.5t-215.5 163t-262 59.5q-147 0 -270 -61.5t-213 -166t-140.5 -242.5t-50.5 -292zM377 725q0 272 39 433t116 237q47 47 110 63.5t134 16.5 q74 0 135.5 -16.5t110.5 -63.5q78 -76 117 -237t39 -433q0 -154 -9.5 -264.5t-29 -187t-49 -129t-68.5 -89.5q-49 -45 -110.5 -62.5t-135.5 -17.5q-72 0 -134 17.5t-110 62.5q-39 37 -68.5 89.5t-49 129t-28.5 187t-9 264.5zM440 1642q0 -4 6 -4t7 4q0 59 31.5 100.5 t84.5 41.5q33 0 70 -19.5t78 -42t86 -42t98 -19.5q47 0 88 17.5t72 47t48 71.5t17 91q0 4 -6 4t-6 -4q0 -59 -31.5 -99t-85.5 -40q-35 0 -71.5 18.5t-76.5 42t-86 42t-97 18.5q-96 0 -161 -64.5t-65 -163.5z" />
<glyph unicode="&#xd6;" horiz-adv-x="1554" d="M102 725q0 -158 53.5 -296t144.5 -241.5t214 -163t262 -59.5t262 59.5t215.5 163t145.5 241.5t53 296t-53 297t-145.5 242.5t-215.5 163t-262 59.5q-147 0 -270 -61.5t-213 -166t-140.5 -242.5t-50.5 -292zM377 725q0 272 39 433t116 237q47 47 110 63.5t134 16.5 q74 0 135.5 -16.5t110.5 -63.5q78 -76 117 -237t39 -433q0 -154 -9.5 -264.5t-29 -187t-49 -129t-68.5 -89.5q-49 -45 -110.5 -62.5t-135.5 -17.5q-72 0 -134 17.5t-110 62.5q-39 37 -68.5 89.5t-49 129t-28.5 187t-9 264.5zM492 1732q0 -41 26.5 -68.5t63.5 -27.5 q39 0 66.5 27.5t27.5 68.5t-27.5 69t-66.5 28q-37 0 -63.5 -28t-26.5 -69zM873 1732q0 -41 26.5 -68.5t65.5 -27.5q37 0 63.5 27.5t26.5 68.5t-26.5 69t-63.5 28q-39 0 -65.5 -28t-26.5 -69z" />
<glyph unicode="&#xd8;" horiz-adv-x="1554" d="M102 725q0 -195 79 -358.5t214 -268.5l-84 -139q-2 -4 4.5 -8t8.5 0l11 19q11 18 25.5 41.5t27.5 46t18 30.5q82 -59 175 -91t195 -32q139 0 262 59.5t215.5 163t145.5 241.5t53 296q0 195 -79 357.5t-212 267.5q10 18 30.5 52t35 56.5t16.5 26.5t-4 8t-8 0l-13 -21 q-12 -20 -26 -45.5t-28 -46.5l-13 -20q-80 61 -175 94t-200 33q-147 0 -270 -61.5t-213 -166t-140.5 -242.5t-50.5 -292zM377 725q0 272 39 433t116 237q47 47 110 63.5t134 16.5q74 0 135.5 -16.5t110.5 -63.5q43 -45 78 -121l-654 -1092q-35 82 -52 209t-17 334zM455 168 q2 4 35.5 60.5t93 155.5t128 214t138.5 231.5t127 212t93 155.5l36 60q72 -170 72 -532q0 -154 -9.5 -264.5t-29 -187t-49 -129t-68.5 -89.5q-49 -45 -110.5 -62.5t-135.5 -17.5q-72 0 -134 17.5t-110 62.5q-23 25 -42 51.5t-35 61.5z" />
<glyph unicode="&#xd9;" horiz-adv-x="1482" d="M37 1446q0 -6 4 -6h182q10 0 10 -8v-1018q0 -115 40 -199t111 -139.5t169 -83t215 -27.5q129 0 223 33t155.5 93.5t91.5 146.5t30 192v1002q0 8 12 8h182q4 0 4 6t-4 6h-403q-4 0 -4 -6t4 -6h182q12 0 12 -8v-1002q0 -96 -25.5 -177t-77.5 -138.5t-134 -89t-195 -31.5 q-180 0 -256 108.5t-76 311.5v1018q0 8 13 8h182q4 0 4 6t-4 6h-643q-4 0 -4 -6zM524 1884q0 -31 18.5 -70t68.5 -81t140 -81.5t234 -74.5q4 -2 5 5t-3 7q-109 27 -168.5 86t-95 120.5t-61.5 107.5t-69 46q-33 0 -51 -18t-18 -47z" />
<glyph unicode="&#xda;" horiz-adv-x="1482" d="M37 1446q0 -6 4 -6h182q10 0 10 -8v-1018q0 -115 40 -199t111 -139.5t169 -83t215 -27.5q129 0 223 33t155.5 93.5t91.5 146.5t30 192v1002q0 8 12 8h182q4 0 4 6t-4 6h-403q-4 0 -4 -6t4 -6h182q12 0 12 -8v-1002q0 -96 -25.5 -177t-77.5 -138.5t-134 -89t-195 -31.5 q-180 0 -256 108.5t-76 311.5v1018q0 8 13 8h182q4 0 4 6t-4 6h-643q-4 0 -4 -6zM656 1582q1 -7 5 -5q143 35 233.5 74.5t140.5 81.5t67.5 81t17.5 70q0 29 -18.5 47t-49.5 18q-43 0 -68.5 -46t-61.5 -107.5t-95 -120.5t-168 -86q-4 0 -3 -7z" />
<glyph unicode="&#xdb;" horiz-adv-x="1482" d="M37 1446q0 -6 4 -6h182q10 0 10 -8v-1018q0 -115 40 -199t111 -139.5t169 -83t215 -27.5q129 0 223 33t155.5 93.5t91.5 146.5t30 192v1002q0 8 12 8h182q4 0 4 6t-4 6h-403q-4 0 -4 -6t4 -6h182q12 0 12 -8v-1002q0 -96 -25.5 -177t-77.5 -138.5t-134 -89t-195 -31.5 q-180 0 -256 108.5t-76 311.5v1018q0 8 13 8h182q4 0 4 6t-4 6h-643q-4 0 -4 -6zM545 1605q-2 -4 1 -7t5 -1l248 174l268 -174q4 -2 8 1t2 7q-90 100 -154.5 179t-109.5 149q-4 8 -8 0q-45 -70 -109.5 -148.5t-150.5 -179.5z" />
<glyph unicode="&#xdc;" horiz-adv-x="1482" d="M37 1446q0 -6 4 -6h182q10 0 10 -8v-1018q0 -115 40 -199t111 -139.5t169 -83t215 -27.5q129 0 223 33t155.5 93.5t91.5 146.5t30 192v1002q0 8 12 8h182q4 0 4 6t-4 6h-403q-4 0 -4 -6t4 -6h182q12 0 12 -8v-1002q0 -96 -25.5 -177t-77.5 -138.5t-134 -89t-195 -31.5 q-180 0 -256 108.5t-76 311.5v1018q0 8 13 8h182q4 0 4 6t-4 6h-643q-4 0 -4 -6zM535 1732q0 -41 26.5 -68.5t63.5 -27.5q39 0 66.5 27.5t27.5 68.5t-27.5 69t-66.5 28q-37 0 -63.5 -28t-26.5 -69zM916 1732q0 -41 26.5 -68.5t65.5 -27.5q37 0 63.5 27.5t26.5 68.5t-26.5 69 t-63.5 28q-39 0 -65.5 -28t-26.5 -69z" />
<glyph unicode="&#xdf;" horiz-adv-x="1171" d="M74 6q0 -6 4 -6h440q4 0 4 6t-4 6h-112q-12 0 -13 8v1244q0 137 52.5 192t129.5 55q104 0 146.5 -67.5t42.5 -224.5q0 -84 -9.5 -144.5t-31 -105.5t-58 -80t-94.5 -68q-4 -2 -1 -8t8 -2q37 23 75 23q57 0 100.5 -25t72 -79t42 -141t13.5 -212q0 -127 -9.5 -202t-27 -116 t-42 -53t-54.5 -12q-45 0 -74 28.5t-29 79.5q0 27 8.5 40.5t8.5 33.5q0 29 -19.5 44.5t-48.5 15.5t-47.5 -19.5t-18.5 -56.5q0 -68 59.5 -122t160.5 -54q49 0 104 23.5t101 73.5t77 127.5t31 186.5q0 78 -22.5 159t-66.5 147.5t-111.5 108.5t-158.5 42q-18 0 -31.5 -1 t-35.5 -5q61 25 115.5 61.5t94.5 83.5t63.5 103.5t23.5 119.5q0 74 -26.5 132.5t-74 97.5t-113 59.5t-143.5 20.5t-144 -33t-117.5 -105.5t-80 -187.5t-28.5 -276v-902q0 -8 -12 -8h-115q-4 0 -4 -6z" />
<glyph unicode="&#xe0;" horiz-adv-x="899" d="M74 199q0 -61 24.5 -102.5t64.5 -66t90 -35.5t101 -11q84 0 145.5 34.5t82.5 100.5q10 -59 55 -97t111 -38q57 0 96 25t49 54q2 4 -3 7.5t-7 -0.5q-4 -16 -24.5 -35t-47.5 -19q-53 0 -53 70v436q0 193 -86 282t-246 89q-59 0 -107.5 -16.5t-81 -41t-50 -54t-17.5 -56.5 q0 -35 19.5 -63.5t66.5 -28.5q49 0 70.5 21.5t21.5 50.5q0 25 -8 39t-8 40q0 51 27.5 74t66.5 23q29 0 55.5 -9.5t46 -32t31.5 -62.5t12 -101v-156q0 -16 -19.5 -26.5t-52 -16.5t-72.5 -10t-83 -8q-31 -4 -77 -14.5t-89 -38t-73.5 -77.5t-30.5 -130zM219 1362 q0 -31 18.5 -70t68.5 -81t140 -81.5t234 -74.5q4 -2 5 5t-3 7q-109 27 -168.5 86t-95 120.5t-61.5 107.5t-69 46q-33 0 -51 -18t-18 -47zM258 199q0 70 10.5 115.5t26.5 73.5t39.5 41t48.5 17q45 10 99.5 15.5t88.5 27.5v-331q0 -31 -13 -58.5t-37.5 -49t-57.5 -34 t-72 -12.5q-25 0 -49.5 7t-42.5 27.5t-29.5 59.5t-11.5 101z" />
<glyph unicode="&#xe1;" horiz-adv-x="899" d="M74 199q0 -61 24.5 -102.5t64.5 -66t90 -35.5t101 -11q84 0 145.5 34.5t82.5 100.5q10 -59 55 -97t111 -38q57 0 96 25t49 54q2 4 -3 7.5t-7 -0.5q-4 -16 -24.5 -35t-47.5 -19q-53 0 -53 70v436q0 193 -86 282t-246 89q-59 0 -107.5 -16.5t-81 -41t-50 -54t-17.5 -56.5 q0 -35 19.5 -63.5t66.5 -28.5q49 0 70.5 21.5t21.5 50.5q0 25 -8 39t-8 40q0 51 27.5 74t66.5 23q29 0 55.5 -9.5t46 -32t31.5 -62.5t12 -101v-156q0 -16 -19.5 -26.5t-52 -16.5t-72.5 -10t-83 -8q-31 -4 -77 -14.5t-89 -38t-73.5 -77.5t-30.5 -130zM258 199 q0 70 10.5 115.5t26.5 73.5t39.5 41t48.5 17q45 10 99.5 15.5t88.5 27.5v-331q0 -31 -13 -58.5t-37.5 -49t-57.5 -34t-72 -12.5q-25 0 -49.5 7t-42.5 27.5t-29.5 59.5t-11.5 101zM288 1060q1 -7 5 -5q143 35 233.5 74.5t140.5 81.5t67.5 81t17.5 70q0 29 -18.5 47t-49.5 18 q-43 0 -68.5 -46t-61.5 -107.5t-95 -120.5t-168 -86q-4 0 -3 -7z" />
<glyph unicode="&#xe2;" horiz-adv-x="899" d="M74 199q0 -61 24.5 -102.5t64.5 -66t90 -35.5t101 -11q84 0 145.5 34.5t82.5 100.5q10 -59 55 -97t111 -38q57 0 96 25t49 54q2 4 -3 7.5t-7 -0.5q-4 -16 -24.5 -35t-47.5 -19q-53 0 -53 70v436q0 193 -86 282t-246 89q-59 0 -107.5 -16.5t-81 -41t-50 -54t-17.5 -56.5 q0 -35 19.5 -63.5t66.5 -28.5q49 0 70.5 21.5t21.5 50.5q0 25 -8 39t-8 40q0 51 27.5 74t66.5 23q29 0 55.5 -9.5t46 -32t31.5 -62.5t12 -101v-156q0 -16 -19.5 -26.5t-52 -16.5t-72.5 -10t-83 -8q-31 -4 -77 -14.5t-89 -38t-73.5 -77.5t-30.5 -130zM203 1083q-2 -4 1 -7 t5 -1l248 174l268 -174q4 -2 8 1t2 7q-90 100 -154.5 179t-109.5 149q-4 8 -8 0q-45 -70 -109.5 -148.5t-150.5 -179.5zM258 199q0 70 10.5 115.5t26.5 73.5t39.5 41t48.5 17q45 10 99.5 15.5t88.5 27.5v-331q0 -31 -13 -58.5t-37.5 -49t-57.5 -34t-72 -12.5q-25 0 -49.5 7 t-42.5 27.5t-29.5 59.5t-11.5 101z" />
<glyph unicode="&#xe3;" horiz-adv-x="899" d="M74 199q0 -61 24.5 -102.5t64.5 -66t90 -35.5t101 -11q84 0 145.5 34.5t82.5 100.5q10 -59 55 -97t111 -38q57 0 96 25t49 54q2 4 -3 7.5t-7 -0.5q-4 -16 -24.5 -35t-47.5 -19q-53 0 -53 70v436q0 193 -86 282t-246 89q-59 0 -107.5 -16.5t-81 -41t-50 -54t-17.5 -56.5 q0 -35 19.5 -63.5t66.5 -28.5q49 0 70.5 21.5t21.5 50.5q0 25 -8 39t-8 40q0 51 27.5 74t66.5 23q29 0 55.5 -9.5t46 -32t31.5 -62.5t12 -101v-156q0 -16 -19.5 -26.5t-52 -16.5t-72.5 -10t-83 -8q-31 -4 -77 -14.5t-89 -38t-73.5 -77.5t-30.5 -130zM140 1120q0 -4 6 -4t6 4 q0 59 31.5 100.5t85.5 41.5q33 0 69.5 -19.5t77.5 -42t86 -42t98 -19.5q47 0 88 17.5t72 47t48.5 71.5t17.5 91q0 4 -6 4t-7 -4q0 -59 -31.5 -99t-84.5 -40q-35 0 -72 18.5t-77 42t-86 42t-97 18.5q-96 0 -160.5 -64.5t-64.5 -163.5zM258 199q0 70 10.5 115.5t26.5 73.5 t39.5 41t48.5 17q45 10 99.5 15.5t88.5 27.5v-331q0 -31 -13 -58.5t-37.5 -49t-57.5 -34t-72 -12.5q-25 0 -49.5 7t-42.5 27.5t-29.5 59.5t-11.5 101z" />
<glyph unicode="&#xe4;" horiz-adv-x="899" d="M74 199q0 -61 24.5 -102.5t64.5 -66t90 -35.5t101 -11q84 0 145.5 34.5t82.5 100.5q10 -59 55 -97t111 -38q57 0 96 25t49 54q2 4 -3 7.5t-7 -0.5q-4 -16 -24.5 -35t-47.5 -19q-53 0 -53 70v436q0 193 -86 282t-246 89q-59 0 -107.5 -16.5t-81 -41t-50 -54t-17.5 -56.5 q0 -35 19.5 -63.5t66.5 -28.5q49 0 70.5 21.5t21.5 50.5q0 25 -8 39t-8 40q0 51 27.5 74t66.5 23q29 0 55.5 -9.5t46 -32t31.5 -62.5t12 -101v-156q0 -16 -19.5 -26.5t-52 -16.5t-72.5 -10t-83 -8q-31 -4 -77 -14.5t-89 -38t-73.5 -77.5t-30.5 -130zM193 1210 q0 -41 26.5 -68.5t63.5 -27.5q39 0 66.5 27.5t27.5 68.5t-27.5 69t-66.5 28q-37 0 -63.5 -28t-26.5 -69zM258 199q0 70 10.5 115.5t26.5 73.5t39.5 41t48.5 17q45 10 99.5 15.5t88.5 27.5v-331q0 -31 -13 -58.5t-37.5 -49t-57.5 -34t-72 -12.5q-25 0 -49.5 7t-42.5 27.5 t-29.5 59.5t-11.5 101zM574 1210q0 -41 26.5 -68.5t65.5 -27.5q37 0 63.5 27.5t26.5 68.5t-26.5 69t-63.5 28q-39 0 -65.5 -28t-26.5 -69z" />
<glyph unicode="&#xe5;" horiz-adv-x="899" d="M74 199q0 -61 24.5 -102.5t64.5 -66t90 -35.5t101 -11q84 0 145.5 34.5t82.5 100.5q10 -59 55 -97t111 -38q57 0 96 25t49 54q2 4 -3 7.5t-7 -0.5q-4 -16 -24.5 -35t-47.5 -19q-53 0 -53 70v436q0 193 -86 282t-246 89q-59 0 -107.5 -16.5t-81 -41t-50 -54t-17.5 -56.5 q0 -35 19.5 -63.5t66.5 -28.5q49 0 70.5 21.5t21.5 50.5q0 25 -8 39t-8 40q0 51 27.5 74t66.5 23q29 0 55.5 -9.5t46 -32t31.5 -62.5t12 -101v-156q0 -16 -19.5 -26.5t-52 -16.5t-72.5 -10t-83 -8q-31 -4 -77 -14.5t-89 -38t-73.5 -77.5t-30.5 -130zM258 199 q0 70 10.5 115.5t26.5 73.5t39.5 41t48.5 17q45 10 99.5 15.5t88.5 27.5v-331q0 -31 -13 -58.5t-37.5 -49t-57.5 -34t-72 -12.5q-25 0 -49.5 7t-42.5 27.5t-29.5 59.5t-11.5 101zM309 1245q0 -66 46 -112t112 -46t111.5 46t45.5 112t-46 112t-111 46q-66 0 -112 -46 t-46 -112zM323 1245q0 59 42 102.5t102 43.5q59 0 101 -43.5t42 -102.5t-42 -102t-101 -43t-101.5 43t-42.5 102z" />
<glyph unicode="&#xe6;" horiz-adv-x="1441" d="M84 197q0 -61 24.5 -102.5t64.5 -66t90 -35.5t102 -11q49 0 93 17t75.5 45t51 64.5t21.5 77.5q51 -96 161 -150t237 -54q111 0 198.5 53t147.5 141q2 4 -3.5 6t-7.5 0q-53 -84 -139 -136t-196 -52q-41 0 -77 10t-65 37q-23 23 -39 52.5t-26.5 75.5t-14.5 110.5t-4 156.5 v27q0 12 2 22h586q4 1 4 7q0 57 -21.5 126.5t-65.5 130t-113.5 101.5t-165.5 41q-86 0 -160 -33t-127 -92q-37 66 -111 95.5t-166 29.5q-59 0 -108 -15.5t-84 -40t-53.5 -54t-18.5 -56.5q0 -35 20.5 -63.5t67.5 -28.5q49 0 70.5 21.5t21.5 50.5q0 25 -8 39t-8 40 q0 51 29.5 73t70.5 22q29 0 56.5 -9.5t49 -32t34 -62.5t12.5 -101v-156q0 -16 -21.5 -26.5t-56.5 -16.5t-77 -10t-85 -8q-31 -4 -76 -14.5t-88 -38t-73.5 -78t-30.5 -129.5zM266 197q0 70 10.5 115.5t26.5 73.5t40 41t48 19q23 4 50.5 6.5t55 6.5t52 10t43.5 18v-299 q0 -37 -17.5 -70.5t-45 -59t-62.5 -41t-68 -15.5q-27 0 -50 7t-41.5 27.5t-30 59.5t-11.5 101zM780 500q4 133 22.5 212t59.5 119q29 27 65 37.5t77 10.5q35 0 64.5 -10.5t51.5 -37.5q35 -41 50.5 -119.5t19.5 -211.5h-410z" />
<glyph unicode="&#xe7;" horiz-adv-x="899" d="M82 436q0 -90 31.5 -171t87 -142.5t129 -99t159.5 -41.5q-14 -20 -28.5 -59.5t-14.5 -78.5q0 -53 26 -78.5t55.5 -42t55 -31t25.5 -40.5q0 -47 -34.5 -76t-88.5 -29q-53 0 -53 41q0 16 10.5 22.5t10.5 31.5q0 23 -13.5 32t-31.5 9q-23 0 -36.5 -15.5t-13.5 -36.5 q0 -29 32 -61.5t95 -32.5q72 0 110 42t38 112q0 57 -23.5 83.5t-52.5 44t-52.5 36t-23.5 61.5q0 16 7.5 35.5t13.5 30.5q117 -2 206 52t148 142q4 4 -1 6t-7 0q-53 -84 -140 -136t-198 -52q-41 0 -78 10t-65 37q-25 23 -42.5 52.5t-28.5 75.5t-16.5 110.5t-5.5 156.5 t5.5 156.5t16.5 111t28.5 76t42.5 51.5q29 27 65.5 37.5t77.5 10.5q76 0 109.5 -22.5t33.5 -78.5q0 -23 -4 -35t-8 -21t-8 -20.5t-4 -29.5q0 -29 23.5 -51.5t62.5 -22.5q41 0 64.5 21.5t23.5 68.5q0 37 -19.5 73t-56.5 65.5t-92 47t-125 17.5q-90 0 -168 -36t-135 -97.5 t-91 -144.5t-34 -177z" />
<glyph unicode="&#xe8;" horiz-adv-x="942" d="M84 436q0 -94 33 -177t89 -144.5t133 -97t167 -35.5q109 0 198 53t146 141q2 4 -2 6t-6 0q-53 -84 -139.5 -136t-196.5 -52q-41 0 -77 10t-64 37q-25 23 -41.5 52.5t-26.5 75.5t-14 110.5t-4 156.5v49h587q6 1 6 7q0 57 -21.5 126.5t-65.5 130t-113.5 101.5t-165.5 41 q-90 0 -167 -36t-133 -97.5t-89 -144.5t-33 -177zM223 1362q0 -31 18.5 -70t68.5 -81t140 -81.5t234 -74.5q4 -2 5 5t-3 7q-109 27 -168.5 86t-95 120.5t-61.5 107.5t-69 46q-33 0 -51 -18t-18 -47zM281 500q4 133 22.5 212t61.5 119q29 27 64.5 37.5t76.5 10.5 q35 0 63.5 -10.5t53.5 -37.5q35 -41 50 -119.5t19 -211.5h-411z" />
<glyph unicode="&#xe9;" horiz-adv-x="942" d="M84 436q0 -94 33 -177t89 -144.5t133 -97t167 -35.5q109 0 198 53t146 141q2 4 -2 6t-6 0q-53 -84 -139.5 -136t-196.5 -52q-41 0 -77 10t-64 37q-25 23 -41.5 52.5t-26.5 75.5t-14 110.5t-4 156.5v49h587q6 1 6 7q0 57 -21.5 126.5t-65.5 130t-113.5 101.5t-165.5 41 q-90 0 -167 -36t-133 -97.5t-89 -144.5t-33 -177zM281 500q4 133 22.5 212t61.5 119q29 27 64.5 37.5t76.5 10.5q35 0 63.5 -10.5t53.5 -37.5q35 -41 50 -119.5t19 -211.5h-411zM349 1060q1 -7 5 -5q143 35 233.5 74.5t140.5 81.5t67.5 81t17.5 70q0 29 -18.5 47t-49.5 18 q-43 0 -68.5 -46t-61.5 -107.5t-95 -120.5t-168 -86q-4 0 -3 -7z" />
<glyph unicode="&#xea;" horiz-adv-x="942" d="M84 436q0 -94 33 -177t89 -144.5t133 -97t167 -35.5q109 0 198 53t146 141q2 4 -2 6t-6 0q-53 -84 -139.5 -136t-196.5 -52q-41 0 -77 10t-64 37q-25 23 -41.5 52.5t-26.5 75.5t-14 110.5t-4 156.5v49h587q6 1 6 7q0 57 -21.5 126.5t-65.5 130t-113.5 101.5t-165.5 41 q-90 0 -167 -36t-133 -97.5t-89 -144.5t-33 -177zM248 1083q-2 -4 1 -7t5 -1l248 174l268 -174q4 -2 8 1t2 7q-90 100 -154.5 179t-109.5 149q-4 8 -8 0q-45 -70 -109.5 -148.5t-150.5 -179.5zM281 500q4 133 22.5 212t61.5 119q29 27 64.5 37.5t76.5 10.5q35 0 63.5 -10.5 t53.5 -37.5q35 -41 50 -119.5t19 -211.5h-411z" />
<glyph unicode="&#xeb;" horiz-adv-x="942" d="M84 436q0 -94 33 -177t89 -144.5t133 -97t167 -35.5q109 0 198 53t146 141q2 4 -2 6t-6 0q-53 -84 -139.5 -136t-196.5 -52q-41 0 -77 10t-64 37q-25 23 -41.5 52.5t-26.5 75.5t-14 110.5t-4 156.5v49h587q6 1 6 7q0 57 -21.5 126.5t-65.5 130t-113.5 101.5t-165.5 41 q-90 0 -167 -36t-133 -97.5t-89 -144.5t-33 -177zM221 1210q0 -41 26.5 -68.5t63.5 -27.5q39 0 66.5 27.5t27.5 68.5t-27.5 69t-66.5 28q-37 0 -63.5 -28t-26.5 -69zM281 500q4 133 22.5 212t61.5 119q29 27 64.5 37.5t76.5 10.5q35 0 63.5 -10.5t53.5 -37.5 q35 -41 50 -119.5t19 -211.5h-411zM602 1210q0 -41 26.5 -68.5t65.5 -27.5q37 0 63.5 27.5t26.5 68.5t-26.5 69t-63.5 28q-39 0 -65.5 -28t-26.5 -69z" />
<glyph unicode="&#xec;" horiz-adv-x="542" d="M-18 1362q0 -31 18.5 -70t68.5 -81t140 -81.5t234 -74.5q4 -2 5 5t-3 7q-109 27 -168.5 86t-95 120.5t-61.5 107.5t-69 46q-33 0 -51 -18t-18 -47zM57 6q0 -6 4 -6h441q4 0 4 6t-4 6h-113q-14 0 -14 8v846q0 6 -4 6h-310q-4 0 -4 -6t4 -6h115q12 0 12 -8v-832 q0 -8 -12 -8h-115q-4 0 -4 -6z" />
<glyph unicode="&#xed;" horiz-adv-x="542" d="M57 6q0 -6 4 -6h441q4 0 4 6t-4 6h-113q-14 0 -14 8v846q0 6 -4 6h-310q-4 0 -4 -6t4 -6h115q12 0 12 -8v-832q0 -8 -12 -8h-115q-4 0 -4 -6zM142 1060q1 -7 5 -5q143 35 233.5 74.5t140.5 81.5t67.5 81t17.5 70q0 29 -18.5 47t-49.5 18q-43 0 -68.5 -46t-61.5 -107.5 t-95 -120.5t-168 -86q-4 0 -3 -7z" />
<glyph unicode="&#xee;" horiz-adv-x="542" d="M6 1083q-2 -4 1 -7t5 -1l248 174l268 -174q4 -2 8 1t2 7q-90 100 -154.5 179t-109.5 149q-4 8 -8 0q-45 -70 -109.5 -148.5t-150.5 -179.5zM57 6q0 -6 4 -6h441q4 0 4 6t-4 6h-113q-14 0 -14 8v846q0 6 -4 6h-310q-4 0 -4 -6t4 -6h115q12 0 12 -8v-832q0 -8 -12 -8h-115 q-4 0 -4 -6z" />
<glyph unicode="&#xef;" horiz-adv-x="542" d="M-2 1210q0 -41 26.5 -68.5t63.5 -27.5q39 0 66.5 27.5t27.5 68.5t-27.5 69t-66.5 28q-37 0 -63.5 -28t-26.5 -69zM57 6q0 -6 4 -6h441q4 0 4 6t-4 6h-113q-14 0 -14 8v846q0 6 -4 6h-310q-4 0 -4 -6t4 -6h115q12 0 12 -8v-832q0 -8 -12 -8h-115q-4 0 -4 -6zM379 1210 q0 -41 26.5 -68.5t65.5 -27.5q37 0 63.5 27.5t26.5 68.5t-26.5 69t-63.5 28q-39 0 -65.5 -28t-26.5 -69z" />
<glyph unicode="&#xf1;" horiz-adv-x="1073" d="M39 6q0 -6 4 -6h438q4 0 4 6t-4 6h-112q-12 0 -13 8v682q23 76 78 126.5t154 50.5q27 0 53.5 -12.5t48 -38t35.5 -65.5t14 -93v-650q0 -8 -14 -8h-113q-4 0 -4 -6t4 -6h441q4 0 4 6t-4 6h-113q-14 0 -14 8v529q0 164 -90.5 253t-247.5 89q-70 0 -136.5 -37t-95.5 -123 v135q0 6 -6 6h-307q-4 0 -4 -6t4 -6h113q12 0 12 -8v-832q0 -8 -12 -8h-113q-4 0 -4 -6zM207 1120q0 -4 6 -4t6 4q0 59 31.5 100.5t85.5 41.5q33 0 69.5 -19.5t77.5 -42t86 -42t98 -19.5q47 0 88 17.5t72 47t48.5 71.5t17.5 91q0 4 -6 4t-7 -4q0 -59 -31.5 -99t-84.5 -40 q-35 0 -72 18.5t-77 42t-86 42t-97 18.5q-96 0 -160.5 -64.5t-64.5 -163.5z" />
<glyph unicode="&#xf2;" horiz-adv-x="1024" d="M84 436q0 -94 34 -177t91 -144.5t135 -97t166 -35.5q90 0 168 35.5t136 97t92 144.5t34 177t-34 177t-92 144.5t-136 97.5t-168 36q-88 0 -166 -36t-135 -97.5t-91 -144.5t-34 -177zM207 1362q0 -31 18.5 -70t68.5 -81t140 -81.5t234 -74.5q4 -2 5 5t-3 7 q-109 27 -168.5 86t-95 120.5t-61.5 107.5t-69 46q-33 0 -51 -18t-18 -47zM276 436q0 160 23 255t70 140q29 27 64.5 37.5t76.5 10.5q45 0 81 -10.5t64 -37.5q47 -45 70 -140t23 -255q0 -92 -5.5 -156.5t-16.5 -110.5t-28.5 -76t-42.5 -52q-29 -27 -64.5 -37t-80.5 -10 q-41 0 -77 10t-64 37q-25 23 -42.5 52.5t-28.5 75.5t-16.5 110.5t-5.5 156.5z" />
<glyph unicode="&#xf3;" horiz-adv-x="1024" d="M84 436q0 -94 34 -177t91 -144.5t135 -97t166 -35.5q90 0 168 35.5t136 97t92 144.5t34 177t-34 177t-92 144.5t-136 97.5t-168 36q-88 0 -166 -36t-135 -97.5t-91 -144.5t-34 -177zM276 436q0 160 23 255t70 140q29 27 64.5 37.5t76.5 10.5q45 0 81 -10.5t64 -37.5 q47 -45 70 -140t23 -255q0 -92 -5.5 -156.5t-16.5 -110.5t-28.5 -76t-42.5 -52q-29 -27 -64.5 -37t-80.5 -10q-41 0 -77 10t-64 37q-25 23 -42.5 52.5t-28.5 75.5t-16.5 110.5t-5.5 156.5zM327 1060q1 -7 5 -5q143 35 233.5 74.5t140.5 81.5t67.5 81t17.5 70q0 29 -18.5 47 t-49.5 18q-43 0 -68.5 -46t-61.5 -107.5t-95 -120.5t-168 -86q-4 0 -3 -7z" />
<glyph unicode="&#xf4;" horiz-adv-x="1024" d="M84 436q0 -94 34 -177t91 -144.5t135 -97t166 -35.5q90 0 168 35.5t136 97t92 144.5t34 177t-34 177t-92 144.5t-136 97.5t-168 36q-88 0 -166 -36t-135 -97.5t-91 -144.5t-34 -177zM240 1083q-2 -4 1 -7t5 -1l248 174l268 -174q4 -2 8 1t2 7q-90 100 -154.5 179 t-109.5 149q-4 8 -8 0q-45 -70 -109.5 -148.5t-150.5 -179.5zM276 436q0 160 23 255t70 140q29 27 64.5 37.5t76.5 10.5q45 0 81 -10.5t64 -37.5q47 -45 70 -140t23 -255q0 -92 -5.5 -156.5t-16.5 -110.5t-28.5 -76t-42.5 -52q-29 -27 -64.5 -37t-80.5 -10q-41 0 -77 10 t-64 37q-25 23 -42.5 52.5t-28.5 75.5t-16.5 110.5t-5.5 156.5z" />
<glyph unicode="&#xf5;" horiz-adv-x="1024" d="M84 436q0 -94 34 -177t91 -144.5t135 -97t166 -35.5q90 0 168 35.5t136 97t92 144.5t34 177t-34 177t-92 144.5t-136 97.5t-168 36q-88 0 -166 -36t-135 -97.5t-91 -144.5t-34 -177zM179 1120q0 -4 6 -4t6 4q0 59 31.5 100.5t85.5 41.5q33 0 69.5 -19.5t77.5 -42t86 -42 t98 -19.5q47 0 88 17.5t72 47t48.5 71.5t17.5 91q0 4 -6 4t-7 -4q0 -59 -31.5 -99t-84.5 -40q-35 0 -72 18.5t-77 42t-86 42t-97 18.5q-96 0 -160.5 -64.5t-64.5 -163.5zM276 436q0 160 23 255t70 140q29 27 64.5 37.5t76.5 10.5q45 0 81 -10.5t64 -37.5q47 -45 70 -140 t23 -255q0 -92 -5.5 -156.5t-16.5 -110.5t-28.5 -76t-42.5 -52q-29 -27 -64.5 -37t-80.5 -10q-41 0 -77 10t-64 37q-25 23 -42.5 52.5t-28.5 75.5t-16.5 110.5t-5.5 156.5z" />
<glyph unicode="&#xf6;" horiz-adv-x="1024" d="M84 436q0 -94 34 -177t91 -144.5t135 -97t166 -35.5q90 0 168 35.5t136 97t92 144.5t34 177t-34 177t-92 144.5t-136 97.5t-168 36q-88 0 -166 -36t-135 -97.5t-91 -144.5t-34 -177zM231 1210q0 -41 26.5 -68.5t63.5 -27.5q39 0 66.5 27.5t27.5 68.5t-27.5 69t-66.5 28 q-37 0 -63.5 -28t-26.5 -69zM276 436q0 160 23 255t70 140q29 27 64.5 37.5t76.5 10.5q45 0 81 -10.5t64 -37.5q47 -45 70 -140t23 -255q0 -92 -5.5 -156.5t-16.5 -110.5t-28.5 -76t-42.5 -52q-29 -27 -64.5 -37t-80.5 -10q-41 0 -77 10t-64 37q-25 23 -42.5 52.5 t-28.5 75.5t-16.5 110.5t-5.5 156.5zM612 1210q0 -41 26.5 -68.5t65.5 -27.5q37 0 63.5 27.5t26.5 68.5t-26.5 69t-63.5 28q-39 0 -65.5 -28t-26.5 -69z" />
<glyph unicode="&#xf8;" horiz-adv-x="1026" d="M84 436q0 -111 46 -206t126 -158l-78 -113q-2 -4 3 -9t7 -1t16.5 24.5t35 50t26.5 39.5q106 -82 246 -81q88 0 167 35.5t137 97t92 144.5t34 177q0 111 -47 206t-127 159q8 12 28.5 40.5t35 49t16.5 24.5q2 2 -4 7.5t-8 1.5t-16.5 -24.5t-34 -50.5t-27.5 -40 q-51 39 -113.5 60.5t-132.5 21.5q-88 0 -166 -36t-136 -97.5t-92 -144.5t-34 -177zM279 436q0 160 21.5 255t68.5 140q29 27 64.5 37.5t78.5 10.5q45 0 80 -10.5t63 -37.5q38 -35 56 -94l-30 -43t-75 -108.5t-97 -142t-97 -142t-75 -109.5l-30 -45q-14 47 -21 117t-7 172z M311 131l30 44q30 44 75 109.5t97 142.5t97 142.5t75 109.5l30 44q33 -99 33 -287q0 -92 -5.5 -156.5t-16.5 -110.5t-28.5 -76t-42.5 -52q-29 -27 -63.5 -37t-79.5 -10q-43 0 -79 10t-64 37q-18 16 -32.5 37.5t-25.5 52.5z" />
<glyph unicode="&#xf9;" horiz-adv-x="1052" d="M16 866q0 -6 4 -6h115q12 0 12 -6v-545q0 -164 90.5 -244.5t245.5 -80.5q35 0 71 8t67.5 27.5t57.5 50t40 73.5v-137q0 -6 4 -6h307q4 0 4 6t-4 6h-112q-14 0 -15 8v846q0 6 -4 6h-307q-4 0 -4 -6t4 -6h113q14 0 14 -6v-684q-25 -76 -80 -125t-156 -49q-27 0 -53.5 12 t-48 38t-34.5 65t-13 92v663q0 6 -6 6h-308q-4 0 -4 -6zM250 1362q0 -31 18.5 -70t68.5 -81t140 -81.5t234 -74.5q4 -2 5 5t-3 7q-109 27 -168.5 86t-95 120.5t-61.5 107.5t-69 46q-33 0 -51 -18t-18 -47z" />
<glyph unicode="&#xfa;" horiz-adv-x="1052" d="M16 866q0 -6 4 -6h115q12 0 12 -6v-545q0 -164 90.5 -244.5t245.5 -80.5q35 0 71 8t67.5 27.5t57.5 50t40 73.5v-137q0 -6 4 -6h307q4 0 4 6t-4 6h-112q-14 0 -15 8v846q0 6 -4 6h-307q-4 0 -4 -6t4 -6h113q14 0 14 -6v-684q-25 -76 -80 -125t-156 -49q-27 0 -53.5 12 t-48 38t-34.5 65t-13 92v663q0 6 -6 6h-308q-4 0 -4 -6zM327 1060q1 -7 5 -5q143 35 233.5 74.5t140.5 81.5t67.5 81t17.5 70q0 29 -18.5 47t-49.5 18q-43 0 -68.5 -46t-61.5 -107.5t-95 -120.5t-168 -86q-4 0 -3 -7z" />
<glyph unicode="&#xfb;" horiz-adv-x="1052" d="M16 866q0 -6 4 -6h115q12 0 12 -6v-545q0 -164 90.5 -244.5t245.5 -80.5q35 0 71 8t67.5 27.5t57.5 50t40 73.5v-137q0 -6 4 -6h307q4 0 4 6t-4 6h-112q-14 0 -15 8v846q0 6 -4 6h-307q-4 0 -4 -6t4 -6h113q14 0 14 -6v-684q-25 -76 -80 -125t-156 -49q-27 0 -53.5 12 t-48 38t-34.5 65t-13 92v663q0 6 -6 6h-308q-4 0 -4 -6zM250 1083q-2 -4 1 -7t5 -1l248 174l268 -174q4 -2 8 1t2 7q-90 100 -154.5 179t-109.5 149q-4 8 -8 0q-45 -70 -109.5 -148.5t-150.5 -179.5z" />
<glyph unicode="&#xfc;" horiz-adv-x="1052" d="M16 866q0 -6 4 -6h115q12 0 12 -6v-545q0 -164 90.5 -244.5t245.5 -80.5q35 0 71 8t67.5 27.5t57.5 50t40 73.5v-137q0 -6 4 -6h307q4 0 4 6t-4 6h-112q-14 0 -15 8v846q0 6 -4 6h-307q-4 0 -4 -6t4 -6h113q14 0 14 -6v-684q-25 -76 -80 -125t-156 -49q-27 0 -53.5 12 t-48 38t-34.5 65t-13 92v663q0 6 -6 6h-308q-4 0 -4 -6zM225 1210q0 -41 26.5 -68.5t63.5 -27.5q39 0 66.5 27.5t27.5 68.5t-27.5 69t-66.5 28q-37 0 -63.5 -28t-26.5 -69zM606 1210q0 -41 26.5 -68.5t65.5 -27.5q37 0 63.5 27.5t26.5 68.5t-26.5 69t-63.5 28 q-39 0 -65.5 -28t-26.5 -69z" />
<glyph unicode="&#xff;" horiz-adv-x="858" d="M-68 866q0 -6 5 -6h98q12 0 16 -6l402 -874l-174 -467q-29 -80 -56.5 -105.5t-48.5 -25.5q-51 0 -51 28q0 16 6 27.5t14.5 23t14.5 24.5t6 32q0 31 -22.5 53t-63.5 22t-71 -33.5t-30 -82.5q0 -59 42 -92t104 -33q61 0 98 37t72 129l465 1259q20 57 29.5 70.5t19.5 13.5 h111q4 0 4 6t-4 6h-269q-4 0 -4 -6t4 -6h111q10 0 9 -13t-24 -73l-213 -571l-278 651q-4 6 10 6h109q4 0 4 6t-4 6h-436q-4 0 -5 -6zM203 1210q0 -41 26.5 -68.5t63.5 -27.5q39 0 66.5 27.5t27.5 68.5t-27.5 69t-66.5 28q-37 0 -63.5 -28t-26.5 -69zM584 1210 q0 -41 26.5 -68.5t65.5 -27.5q37 0 63.5 27.5t26.5 68.5t-26.5 69t-63.5 28q-39 0 -65.5 -28t-26.5 -69z" />
<glyph unicode="&#x152;" horiz-adv-x="2019" d="M102 725q0 -150 53.5 -282t144.5 -230t214 -155.5t262 -57.5h1186q6 0 6 6v438q0 4 -6 5q-6 0 -6 -5q0 -80 -26.5 -156.5t-85 -138t-149.5 -99.5t-218 -38h-238q-12 0 -12 8v719h78q61 0 111 -20.5t86 -55t54.5 -81.5t18.5 -99q0 -4 6 -4t6 4v525q0 4 -6 4t-6 -4 q0 -53 -18.5 -99.5t-54.5 -81t-86 -55t-111 -20.5h-78v680q0 8 12 8h231q96 0 168 -35t118 -90t68.5 -125t22.5 -141q0 -4 6 -5q6 0 7 5v397q0 6 -7 6h-1077q-143 0 -266 -58.5t-214 -157.5t-142.5 -231.5t-51.5 -279.5zM377 725q0 258 38 412.5t117 226.5q47 43 110 59.5 t134 16.5h185q12 0 12 -8v-1412q0 -8 -12 -8h-185q-72 0 -134 16.5t-110 59.5q-41 37 -69.5 85t-48 122t-28.5 178.5t-9 251.5z" />
<glyph unicode="&#x153;" horiz-adv-x="1589" d="M84 436q0 -94 34 -177t91 -144.5t135 -97t168 -35.5q102 0 186 48t138 126q51 -80 132 -127t185 -47q109 0 197 53t147 141q2 4 -2 6t-6 0q-53 -84 -139 -136t-197 -52q-41 0 -78 10t-65 37q-23 23 -39.5 52.5t-26.5 75.5t-14 110.5t-4 156.5v49h587q7 1 7 7 q0 57 -21.5 126.5t-67 130t-115 101.5t-163.5 41q-102 0 -183 -47t-134 -125q-53 78 -137.5 125t-186.5 47q-90 0 -168 -36t-135 -97.5t-91 -144.5t-34 -177zM276 436q0 160 23 255t70 140q29 27 64.5 37.5t78.5 10.5t79 -10.5t64 -37.5q47 -45 70 -140t23 -255 q0 -92 -5.5 -156.5t-16.5 -110.5t-28.5 -76t-42.5 -52q-29 -27 -64.5 -37t-78.5 -10t-79 10t-64 37q-25 23 -42.5 52.5t-28.5 75.5t-16.5 110.5t-5.5 156.5zM926 500q4 133 23.5 212t60.5 119q29 27 65.5 37.5t77.5 10.5q35 0 63.5 -10.5t53.5 -37.5q35 -41 50 -119.5 t19 -211.5h-413z" />
<glyph unicode="&#x178;" horiz-adv-x="1318" d="M-35 1446q0 -6 4 -6h191q12 0 16 -8l414 -799v-613q0 -8 -12 -8h-183q-4 0 -4 -6t4 -6h643q4 0 4 6t-4 6h-182q-14 0 -14 8v644l321 682q14 33 24.5 51t17.5 27.5t12.5 12.5t9.5 3h159q4 0 5 6q0 6 -5 6h-411q-4 0 -4 -6t4 -6h203q12 0 9 -13.5t-32 -72.5l-317 -668 l-383 746q-4 8 8 8h217q4 0 4 6t-4 6h-711q-4 0 -4 -6zM518 1733q0 -41 26.5 -69t63.5 -28q39 0 66.5 28t27.5 69t-27.5 68.5t-66.5 27.5q-37 0 -63.5 -27.5t-26.5 -68.5zM899 1733q0 -41 26.5 -69t65.5 -28q37 0 63.5 28t26.5 69t-26.5 68.5t-63.5 27.5q-39 0 -65.5 -27.5 t-26.5 -68.5z" />
<glyph unicode="&#x2c6;" horiz-adv-x="663" d="M86 1083q-2 -4 1 -7t5 -1l248 174l268 -174q4 -2 8 1t2 7q-90 100 -154.5 179t-109.5 149q-4 8 -8 0q-45 -70 -109.5 -148.5t-150.5 -179.5z" />
<glyph unicode="&#x2dc;" horiz-adv-x="827" d="M70 1120q0 -4 6 -4t6 4q0 59 31.5 100.5t85.5 41.5q33 0 69.5 -19.5t77.5 -42t86 -42t98 -19.5q47 0 88 17.5t72 47t48.5 71.5t17.5 91q0 4 -6 4t-7 -4q0 -59 -31.5 -99t-84.5 -40q-35 0 -72 18.5t-77 42t-86 42t-97 18.5q-96 0 -160.5 -64.5t-64.5 -163.5z" />
<glyph unicode="&#x2000;" horiz-adv-x="975" />
<glyph unicode="&#x2001;" horiz-adv-x="1950" />
<glyph unicode="&#x2002;" horiz-adv-x="975" />
<glyph unicode="&#x2003;" horiz-adv-x="1950" />
<glyph unicode="&#x2004;" horiz-adv-x="650" />
<glyph unicode="&#x2005;" horiz-adv-x="487" />
<glyph unicode="&#x2006;" horiz-adv-x="325" />
<glyph unicode="&#x2007;" horiz-adv-x="325" />
<glyph unicode="&#x2008;" horiz-adv-x="243" />
<glyph unicode="&#x2009;" horiz-adv-x="390" />
<glyph unicode="&#x200a;" horiz-adv-x="108" />
<glyph unicode="&#x2010;" horiz-adv-x="655" d="M57 426h508q4 35 10.5 64.5t22.5 52.5q8 8 0 8h-506q-4 -35 -11 -64.5t-24 -52.5q-4 -8 0 -8z" />
<glyph unicode="&#x2011;" horiz-adv-x="655" d="M57 426h508q4 35 10.5 64.5t22.5 52.5q8 8 0 8h-506q-4 -35 -11 -64.5t-24 -52.5q-4 -8 0 -8z" />
<glyph unicode="&#x2012;" horiz-adv-x="655" d="M57 426h508q4 35 10.5 64.5t22.5 52.5q8 8 0 8h-506q-4 -35 -11 -64.5t-24 -52.5q-4 -8 0 -8z" />
<glyph unicode="&#x2013;" horiz-adv-x="1159" d="M70 483q0 -6 4 -6h1011q4 0 5 6q0 6 -5 6h-1011q-4 0 -4 -6z" />
<glyph unicode="&#x2014;" horiz-adv-x="2172" d="M70 483q0 -6 4 -6h2027q4 0 4 6t-4 6h-2027q-4 0 -4 -6z" />
<glyph unicode="&#x2018;" d="M70 1145q0 -63 28.5 -101t81.5 -38q43 0 73 32.5t30 77.5q0 31 -12.5 53.5t-30.5 36.5q-35 25 -51.5 54.5t-16.5 58.5q0 33 18.5 64.5t53.5 60.5q28 23 61 33q2 2 0 8t-4 4q-47 -16 -88 -57t-74 -91.5t-51 -103.5t-18 -92z" />
<glyph unicode="&#x2019;" d="M55 1011q2 -7 4 -5q47 14 89 55t74 92t50.5 103.5t18.5 91.5q0 66 -27.5 102.5t-81.5 36.5q-43 0 -73.5 -32t-30.5 -79q0 -31 13 -53.5t32 -36.5q68 -49 67 -112q0 -66 -73 -123q-10 -10 -26.5 -19.5t-35.5 -15.5q-2 2 0 -5z" />
<glyph unicode="&#x201a;" d="M55 -276q-2 0 0 -6.5t4 -4.5q45 14 87 55.5t75 92.5t51.5 104t18.5 92q0 66 -27.5 102t-81.5 36q-43 0 -74.5 -33t-31.5 -78q0 -31 14 -53.5t33 -34.5q68 -53 67 -115q0 -66 -73 -123q-23 -23 -62 -34z" />
<glyph unicode="&#x201c;" horiz-adv-x="649" d="M70 1145q0 -63 28.5 -101t81.5 -38q43 0 73 32.5t30 77.5q0 31 -12.5 53.5t-30.5 36.5q-35 25 -51.5 54.5t-16.5 58.5q0 33 18.5 64.5t53.5 60.5q28 23 61 33q2 2 0 8t-4 4q-47 -16 -88 -57t-74 -91.5t-51 -103.5t-18 -92zM362 1145q0 -63 28 -101t81 -38q43 0 73.5 32.5 t30.5 77.5q0 31 -14 53.5t-33 36.5q-68 49 -67 113q0 68 74 125q22 19 59 33q4 2 3 8t-5 4q-47 -16 -88 -57t-73 -91.5t-50.5 -103.5t-18.5 -92z" />
<glyph unicode="&#x201d;" horiz-adv-x="649" d="M55 1011q2 -7 4 -5q47 14 89 55t74 92t50.5 103.5t18.5 91.5q0 66 -27.5 102.5t-81.5 36.5q-43 0 -73.5 -32t-30.5 -79q0 -31 13 -53.5t32 -36.5q68 -49 67 -112q0 -66 -73 -123q-10 -10 -26.5 -19.5t-35.5 -15.5q-2 2 0 -5zM347 1011q1 -7 3 -5q45 14 87 55t74 92 t50.5 103.5t18.5 91.5q0 66 -28 102.5t-81 36.5q-43 0 -72.5 -32t-29.5 -79q0 -31 13 -53.5t30 -36.5q68 -47 67 -112q0 -63 -71 -123q-10 -10 -25.5 -19.5t-34.5 -15.5q-2 2 -1 -5z" />
<glyph unicode="&#x201e;" horiz-adv-x="649" d="M55 -276q-2 0 0 -6.5t4 -4.5q45 14 87 55.5t75 92.5t51.5 104t18.5 92q0 66 -27.5 102t-81.5 36q-43 0 -74.5 -33t-31.5 -78q0 -31 14 -53.5t33 -34.5q68 -53 67 -115q0 -66 -73 -123q-23 -23 -62 -34zM347 -282.5q1 -6.5 3 -4.5q45 14 87 55.5t74 92.5t50.5 104t18.5 92 q0 66 -28 102t-81 36q-43 0 -72.5 -33t-29.5 -78q0 -31 13 -53.5t30 -34.5q35 -27 51 -56.5t16 -58.5q0 -63 -71 -123q-12 -10 -26.5 -19t-33.5 -15q-2 0 -1 -6.5z" />
<glyph unicode="&#x2022;" horiz-adv-x="671" d="M102 725q0 -49 18.5 -92t50.5 -75t75 -50.5t90 -18.5t89 18.5t73.5 50.5t50 75t18.5 92t-18.5 92t-50 75t-73.5 50.5t-89 18.5t-90 -18.5t-75 -50.5t-50.5 -75t-18.5 -92z" />
<glyph unicode="&#x2026;" horiz-adv-x="1236" d="M102 84q0 -47 31 -79t74 -32t73.5 32t30.5 79q0 45 -30.5 77t-73.5 32t-74 -32t-31 -77zM516 84q0 -47 29.5 -79t72.5 -32t74 32t31 79q0 45 -30.5 77t-74.5 32q-43 0 -72.5 -32t-29.5 -77zM928 84q0 -47 30.5 -79t71.5 -32q45 0 75 32t30 79q0 45 -30 77t-75 32 q-41 0 -71.5 -32t-30.5 -77z" />
<glyph unicode="&#x202f;" horiz-adv-x="390" />
<glyph unicode="&#x2039;" horiz-adv-x="462" d="M80 432q20 -10 68.5 -41t97.5 -75t87 -98t38 -116q0 -6 8 -6t8 6q0 49 -14.5 99.5t-36 95.5t-48 81t-48.5 58q23 20 49 57t47.5 82.5t36 94.5t14.5 98q0 6 -8 6t-8 -6q0 -61 -38 -115.5t-87 -98.5t-97.5 -73.5t-68.5 -40.5q-8 -4 0 -8z" />
<glyph unicode="&#x203a;" horiz-adv-x="462" d="M74 102q0 -6 10 -6t10 6q0 61 37 115.5t86 98.5t97.5 75t68.5 41q8 4 0 8q-20 10 -68.5 40t-97.5 74t-86 98.5t-37 115.5q0 6 -10 6t-10 -6q0 -49 14 -98t36.5 -94.5t49.5 -82t49 -57.5q-23 -23 -49.5 -58.5t-49 -80.5t-36.5 -95t-14 -100z" />
<glyph unicode="&#x205f;" horiz-adv-x="487" />
<glyph unicode="&#x2122;" horiz-adv-x="825" d="M51 1350q0 -2 6 -2t6 2q0 37 21.5 63.5t75.5 26.5h8q2 0 2 -2v-283q0 -2 -2 -2h-43q-2 0 -2 -6q0 -4 2 -4h149q2 0 2 4q0 6 -2 6h-41q-2 0 -2 2v283q0 2 2 2h9q53 0 75.5 -27t22.5 -63q0 -2 4 -2q6 0 6 2v100v2h-297q-2 0 -2 -2v-100zM403 1147q0 -4 3 -4h102v10h-43 q-4 0 -4 2v272l117 -290q0 -2 2 -2q4 0 4 2l110 288v-270q0 -2 -2 -2h-41q-2 0 -2 -6q0 -4 2 -4h150q2 0 2 4q0 6 -2 6h-43q-2 0 -2 2v283q0 2 2 2h43q2 0 2 6t-2 6h-105q-4 0 -6 -8l-86 -223l-86 223q-2 8 -8 8h-104q-2 0 -3 -6q0 -6 3 -6h43q2 0 2 -2v-283q0 -2 -2 -2h-43 q-2 0 -3 -6z" />
<glyph unicode="&#x25fc;" horiz-adv-x="870" d="M0 0v870h870v-870h-870z" />
<glyph unicode="&#xfb01;" horiz-adv-x="1071" d="M47 866q0 -6 4 -6h144q12 0 12 -8v-832q0 -8 -12 -8h-115q-4 0 -4 -6t4 -6h440q4 0 4 6t-4 6h-112q-12 0 -13 8v832q0 8 13 8h299q12 0 12 -8v-832q0 -8 -12 -8h-113q-4 0 -4 -6t4 -6h436q4 0 4 6t-4 6h-112q-12 0 -13 8v846q0 6 -6 6h-491q-12 0 -13 9v385 q0 68 17.5 113.5t45 74.5t63.5 41t73 12q92 0 126 -34.5t34 -96.5q0 -23 -5.5 -37t-11.5 -26.5t-11 -24.5t-5 -31q0 -35 23.5 -59t76.5 -24q47 0 75 33.5t28 78.5q0 43 -18.5 85t-55.5 76t-90 55.5t-123 21.5q-104 0 -185 -31t-135.5 -102.5t-82 -187.5t-27.5 -283v-39 q0 -8 -12 -9h-144q-4 0 -4 -6z" />
<glyph unicode="&#xfb02;" horiz-adv-x="1050" d="M47 866q0 -6 4 -6h144q12 0 12 -8v-832q0 -8 -12 -8h-115q-4 0 -4 -6t4 -6h440q4 0 4 6t-4 6h-112q-12 0 -13 8v832q0 8 13 8h311v-840q0 -8 -12 -8h-113q-4 0 -4 -6t4 -6h436q4 0 4 6t-4 6h-112q-12 0 -13 8v1498q0 6 -6 6q-10 0 -32.5 -6.5t-47 -12.5t-45 -12t-29.5 -6 q-14 0 -44.5 18.5t-96.5 18.5q-72 0 -142.5 -25.5t-126.5 -93.5t-92 -184.5t-36 -300.5v-39q0 -8 -12 -9h-144q-4 0 -4 -6zM395 881v385q0 68 17.5 113.5t46 74.5t66.5 41t79 12t78 -13t37 -30v-592h-311q-12 0 -13 9z" />
</font>
</defs>
</svg>
