<?xml version="1.0" encoding="UTF-8" standalone="no"?>
<!-- Generator: Adobe Illustrator 19.0.0, SVG Export Plug-In . SVG Version: 6.00 Build 0)  -->

<svg
   xmlns:dc="http://purl.org/dc/elements/1.1/"
   xmlns:cc="http://creativecommons.org/ns#"
   xmlns:rdf="http://www.w3.org/1999/02/22-rdf-syntax-ns#"
   xmlns:svg="http://www.w3.org/2000/svg"
   xmlns="http://www.w3.org/2000/svg"
   xmlns:sodipodi="http://sodipodi.sourceforge.net/DTD/sodipodi-0.dtd"
   xmlns:inkscape="http://www.inkscape.org/namespaces/inkscape"
   version="1.1"
   id="svg8"
   sodipodi:docname="full-logo2.svg"
   inkscape:version="0.91 r13725"
   x="0px"
   y="0px"
   viewBox="41 431.6 414.5 25.5"
   style="enable-background:new 41 431.6 414.5 25.5;"
   xml:space="preserve"><metadata
     id="metadata74"><rdf:RDF><cc:Work
         rdf:about=""><dc:format>image/svg+xml</dc:format><dc:type
           rdf:resource="http://purl.org/dc/dcmitype/StillImage" /></cc:Work></rdf:RDF></metadata><defs
     id="defs72" /><sodipodi:namedview
     bordercolor="#666666"
     showgrid="false"
     inkscape:cy="-5.9744904"
     borderopacity="1.0"
     inkscape:cx="204.28304"
     pagecolor="#ffffff"
     inkscape:zoom="2.74"
     id="base"
     inkscape:window-maximized="1"
     inkscape:window-y="30"
     inkscape:current-layer="g4123"
     inkscape:document-units="mm"
     inkscape:pageopacity="0.0"
     inkscape:window-x="0"
     inkscape:window-height="1017"
     inkscape:window-width="1920"
     inkscape:pageshadow="2" /><g
     id="g4123"
     transform="matrix(0.46188111,0,0,-0.46188111,-10.640272,575.73497)"><g
       id="g3812"
       transform="matrix(0.50631294,0,0,0.54576063,432.82435,568.37414)"><path
         id="path3814"
         inkscape:connector-curvature="0"
         d="m 684.6,-522.8 c -0.4,0.7 -1.2,1 -2.5,1 -2.6,0 -4.8,-2.2 -6.4,-6.5 l -3.3,-10.2 c -0.4,-1.5 -0.3,-2.6 0.2,-3.3 0.5,-0.7 1.4,-1 2.5,-1 1.3,0 2.3,0.2 3.1,0.7 0.8,0.5 1.6,1.3 2.5,2.4 0.4,0.6 0.9,1.5 1.4,2.7 0.5,1.2 1,2.5 1.5,3.9 0.5,1.4 0.9,2.8 1.2,4.1 0.3,1.3 0.5,2.4 0.5,3.3 -0.1,1.3 -0.3,2.3 -0.7,2.9 m 3.8,-11.2 c -0.9,-1.8 -2,-3.3 -3.4,-4.7 -1.4,-1.4 -2.9,-2.5 -4.6,-3.3 -1.7,-0.8 -3.4,-1.2 -5.2,-1.2 -1.7,0 -3.1,0.2 -4.1,0.6 -1.1,0.4 -1.8,1 -2.3,1.8 -0.5,0.8 -0.7,1.8 -0.7,2.9 0,1.1 0.2,2.4 0.7,3.8 l 8.6,27.3 c 0,0.1 -0.1,0.2 -0.2,0.2 l -2.7,0 c -0.1,0 -0.1,0.1 -0.1,0.2 0,0.1 0.1,0.2 0.2,0.2 l 8.1,0.2 c 0.1,0 0.1,-0.1 0.1,-0.2 l -6.1,-19.6 c 0.7,1.5 1.6,2.7 2.7,3.5 1.1,0.8 2.3,1.2 3.5,1.2 1,0 1.9,-0.2 2.7,-0.5 0.8,-0.3 1.6,-0.8 2.2,-1.4 0.6,-0.6 1.2,-1.4 1.5,-2.3 0.4,-0.9 0.5,-1.9 0.5,-3 -0.1,-2.1 -0.5,-3.9 -1.4,-5.7" /></g><g
       id="g3816"
       transform="matrix(0.57623104,0,0,0.48157941,393.16816,535.60638)"><path
         id="path3818"
         inkscape:connector-curvature="0"
         d="m 704.5,-523.5 c -0.3,-0.3 -0.8,-0.5 -1.2,-0.6 -1.1,-0.3 -2,-0.8 -2.8,-1.3 -0.8,-0.6 -1.5,-1.5 -2.3,-2.7 -0.8,-1.2 -1.6,-2.9 -2.5,-4.9 -0.9,-2.1 -2.1,-4.8 -3.5,-8.1 -1.1,-2.8 -2.2,-5.2 -3.1,-7.3 -1,-2.1 -1.9,-3.9 -2.9,-5.3 -1,-1.4 -2,-2.5 -3.2,-3.2 -1.1,-0.7 -2.4,-1.1 -3.8,-1.1 -0.7,0 -1.4,0.1 -2.1,0.3 -0.6,0.2 -1.2,0.5 -1.7,0.8 -0.5,0.4 -0.9,0.8 -1.2,1.3 -0.3,0.5 -0.4,1.1 -0.4,1.8 0,0.9 0.3,1.7 0.8,2.2 0.5,0.5 1.1,0.8 1.9,0.8 0.8,0 1.4,-0.2 1.7,-0.6 0.3,-0.4 0.5,-0.8 0.5,-1.4 0,-0.6 -0.2,-1.2 -0.5,-1.7 -0.3,-0.5 -0.5,-1 -0.5,-1.4 0,-1.2 0.5,-1.8 1.5,-1.8 1.2,0 2.3,0.3 3.3,0.9 1,0.6 1.9,1.4 2.7,2.5 0.8,1.1 1.7,2.4 2.4,4 0.8,1.6 1.6,3.4 2.5,5.4 l -2.2,13 c -0.3,1.8 -0.7,3.3 -1,4.4 -0.3,1.1 -0.7,1.9 -1,2.5 -0.3,0.6 -0.6,1 -0.9,1.1 -0.3,0.2 -0.6,0.3 -0.9,0.3 -0.4,0 -0.8,-0.2 -1.2,-0.5 -0.4,-0.3 -0.8,-0.9 -1.4,-1.9 l -0.3,0.3 c 0.9,1.6 1.8,2.8 2.7,3.6 0.9,0.8 2,1.2 3.1,1.2 1.4,0 2.4,-0.7 3.2,-2.1 0.7,-1.4 1.4,-3.5 2,-6.4 l 1.5,-7.3 c 1,2.5 2,4.7 2.8,6.6 0.9,1.9 1.7,3.6 2.5,4.9 0.8,1.4 1.5,2.4 2.3,3.1 0.7,0.7 1.5,1.1 2.3,1.1 0.6,0 1,-0.1 1.2,-0.4 0.2,-0.2 0.3,-0.6 0.3,-1.1 -0.1,-0.3 -0.2,-0.7 -0.6,-1" /></g><text
       xml:space="preserve"
       style="font-style:normal;font-weight:normal;font-size:43.30118632px;line-height:125%;font-family:sans-serif;letter-spacing:0px;word-spacing:0px;fill:#000000;fill-opacity:1;stroke:none;stroke-width:1px;stroke-linecap:butt;stroke-linejoin:miter;stroke-opacity:1;"
       x="419.55194"
       y="-513.56592"
       id="text4220"
       sodipodi:linespacing="125%"
       transform="scale(1,-1)"><tspan
         sodipodi:role="line"
         id="tspan4222"
         x="419.55194"
         y="-513.56592" /></text>
<text
       xml:space="preserve"
       style="font-style:normal;font-weight:normal;font-size:37.88853836px;line-height:125%;font-family:sans-serif;letter-spacing:0px;word-spacing:0px;fill:#000000;fill-opacity:1;stroke:none;stroke-width:1px;stroke-linecap:butt;stroke-linejoin:miter;stroke-opacity:1"
       x="114.97116"
       y="-272.16852"
       id="text4224"
       sodipodi:linespacing="125%"
       transform="scale(1,-1)"><tspan
         sodipodi:role="line"
         id="tspan4226"
         x="114.97116"
         y="-272.16852"
         style="font-style:normal;font-variant:normal;font-weight:normal;font-stretch:normal;font-size:32.47589111px;font-family:Sawasdee;-inkscape-font-specification:Sawasdee;letter-spacing:3.68060088px">WELCOME TO MY PERSONAL PAGE</tspan></text>
<text
       xml:space="preserve"
       style="font-style:normal;font-weight:normal;font-size:37.88853836px;line-height:125%;font-family:sans-serif;letter-spacing:0px;word-spacing:0px;fill:#000000;fill-opacity:1;stroke:none;stroke-width:1px;stroke-linecap:butt;stroke-linejoin:miter;stroke-opacity:1"
       x="803.03424"
       y="-271.78958"
       id="text4228"
       sodipodi:linespacing="125%"
       transform="scale(1,-1)"><tspan
         sodipodi:role="line"
         id="tspan4230"
         x="803.03424"
         y="-271.78958"
         style="font-style:italic;font-variant:normal;font-weight:500;font-stretch:normal;font-size:37.88853836px;font-family:'URW Chancery L';-inkscape-font-specification:'URW Chancery L Medium Italic'">iALEX.HAUS</tspan></text>
<flowRoot
       xml:space="preserve"
       id="flowRoot4240"
       style="fill:black;stroke:none;stroke-opacity:1;stroke-width:1px;stroke-linejoin:miter;stroke-linecap:butt;fill-opacity:1;font-family:sans-serif;font-style:normal;font-weight:normal;font-size:17.5px;line-height:125%;letter-spacing:0px;word-spacing:0px"><flowRegion
         id="flowRegion4242"><rect
           id="rect4244"
           width="176.83058"
           height="52.369057"
           x="317.61493"
           y="-61.555058" /></flowRegion><flowPara
         id="flowPara4246"></flowPara></flowRoot><flowRoot
       xml:space="preserve"
       id="flowRoot4252"
       style="fill:black;stroke:none;stroke-opacity:1;stroke-width:1px;stroke-linejoin:miter;stroke-linecap:butt;fill-opacity:1;font-family:sans-serif;font-style:normal;font-weight:normal;font-size:17.5px;line-height:125%;letter-spacing:0px;word-spacing:0px"><flowRegion
         id="flowRegion4254"><rect
           id="rect4256"
           width="50.729927"
           height="24.087591"
           x="111.67883"
           y="-60.631386" /></flowRegion><flowPara
         id="flowPara4258"></flowPara></flowRoot></g></svg>