<?xml version="1.0" encoding="UTF-8" standalone="yes"?>
<!-- Created with sK1/UniConvertor (http://sk1project.org/) -->
<svg xmlns="http://www.w3.org/2000/svg" xmlns:xlink="http://www.w3.org/1999/xlink"
  width="166pt" height="26pt" viewBox="0 0 166 26"
  fill-rule="evenodd">
<g>
<g>
<path style="stroke:none; fill:#000000" d="M 35.4 2.5C 35 3.4 35.2 4.6 35.8 5.2C 37.3 6.7 40.2 5.3 39.8 3.3C 39.4 1 36.2 0.4 35.4 2.5z"/>
<path style="stroke:none; fill:#000000" d="M 35 7.6C 35 8.7 35.5 10.1 36.2 10.8C 37.1 11.7 37.1 12.9 36.2 15.8C 33.9 23.3 34.9 25.7 38.9 22.3C 40.6 20.9 40.7 20.4 39.6 18.1C 38.8 16.5 38.6 14.7 39.1 13.5C 40.4 10.1 40.2 6.7 38.6 7.3C 37.9 7.6 36.7 7.3 36.1 6.7C 35.3 5.9 35 6.1 35 7.6z"/>
<path style="stroke:none; fill:#000000" d="M 56 15L 56 21L 59.3 20.9C 61.6 20.8 61.9 20.6 60.3 20.3C 58.2 19.9 58 19.3 58 14.4C 58 11.4 57.6 9 57 9C 56.4 9 56 11.7 56 15z"/>
<path style="stroke:none; fill:#000000" d="M 65 15C 65 20.9 65 21 67.8 20.9C 69.4 20.8 69.8 20.6 68.8 20.3C 67.4 19.9 67 18.8 67 14.4C 67 11.4 66.6 9 66 9C 65.4 9 65 11.7 65 15z"/>
<path style="stroke:none; fill:#000000" d="M 74.8 12.2C 75.7 14 76.8 15.7 77.1 16C 77.4 16.3 78.2 17.5 78.9 18.7C 79.5 20 80.5 21 81 21C 81.5 21 81 19.4 79.9 17.5C 78.1 14.5 78 13.7 79.1 12.2C 80.4 10.7 80.3 10.6 78.8 11.8C 77.4 12.9 77 12.8 76 11.1C 75.4 9.9 74.5 9 74 9C 73.5 9 73.9 10.5 74.8 12.2z"/>
<path style="stroke:none; fill:#000000" d="M 90 15C 90 18.3 90.4 21 91 21C 91.6 21 92 18.3 92 15C 92 11.7 91.6 9 91 9C 90.4 9 90 11.7 90 15z"/>
<path style="stroke:none; fill:#000000" d="M 98 15C 98 18.3 98.4 21 99 21C 99.6 21 100 18.3 100 15C 100 11.7 99.6 9 99 9C 98.4 9 98 11.7 98 15z"/>
<path style="stroke:none; fill:#000000" d="M 107 9.7C 107 10.3 106.7 11.7 106.4 12.7C 105.9 14.2 106 14.2 106.9 13C 107.9 11.6 108.1 11.9 108 14.5C 107.9 15.6 111.2 21.2 111.6 20.8C 112.1 20.2 109 10.8 107.9 9.5C 107.3 9 107 9 107 9.7z"/>
<path style="stroke:none; fill:#000000" d="M 115 13.8C 115 19.1 116.2 21 119.7 21C 122.6 21 124 18.2 123.8 12.8C 123.7 8.9 123.6 8.8 123.3 12C 122.7 18.5 122 20 120 20C 117.4 20 115.7 16.6 116.2 12.4C 116.4 10.5 116.2 9 115.8 9C 115.4 9 115 11.2 115 13.8z"/>
<path style="stroke:none; fill:#000000" d="M 127.6 10.5C 127.3 11.3 128.1 13.2 129.4 14.7C 130.7 16.3 132 18.2 132.3 19C 132.7 20.1 132.9 19.9 132.9 18.4C 133 17.3 132.1 15.5 130.9 14.4C 129.8 13.4 129.1 11.8 129.3 10.8C 129.9 8.6 128.5 8.4 127.6 10.5z"/>
<path style="stroke:none; fill:#000000" d="M 47 10.8C 47 11.2 47.4 12 47.9 12.5C 48.4 13.1 49.3 15.2 50 17.2C 50.6 19.3 51.6 21 52.2 21C 52.7 21 53 20.7 52.8 20.2C 52.7 19.8 51.7 17.4 50.6 14.7C 49 10.6 47 8.5 47 10.8z"/>
<path style="stroke:none; fill:#000000" d="M 45.5 16.1C 44.4 17.7 45.4 18 46.8 16.4C 47.5 15.6 47.6 15 47.1 15C 46.6 15 45.8 15.5 45.5 16.1z"/>
<path style="stroke:none; fill:#000000" d="M 104.1 18C 103.5 19.8 103.5 21 104.1 21C 104.6 21 105 20.2 105 19.2C 105 18.2 105.5 16.9 106.2 16.2C 107 15.4 107 15 106.3 15C 105.7 15 104.7 16.3 104.1 18z"/>
<path style="stroke:none; fill:#000000" d="M 84.4 17.1C 83.6 18.5 86.2 20.2 87.4 19C 88.3 18.1 87.4 16 86 16C 85.5 16 84.8 16.5 84.4 17.1z"/>
<path style="stroke:none; fill:#000000" d="M 74 19C 73.4 20.1 73.2 21 73.4 21C 73.7 21 74.4 20.1 75 19C 75.6 17.9 75.8 17 75.6 17C 75.3 17 74.6 17.9 74 19z"/>
<path style="stroke:none; fill:#000000" d="M 127.8 20.7C 128.4 20.9 129.6 20.9 130.3 20.7C 130.9 20.4 130.4 20.2 129 20.2C 127.6 20.2 127.1 20.4 127.8 20.7z"/>
</g>
</g>
</svg>